<svg width="58" height="58" viewBox="0 0 58 58" fill="none" xmlns="http://www.w3.org/2000/svg">
<path d="M29 58C45.0163 58 58 45.0163 58 29C58 12.9837 45.0163 0 29 0C12.9837 0 0 12.9837 0 29C0 45.0163 12.9837 58 29 58Z" fill="white"/>
<path d="M29 0C44.9902 0 58 12.9625 58 29C58 35.1501 56.0604 40.8744 52.7961 45.5579C52.6542 45.7944 52.3703 46.1256 52.0392 46.5987C51.8026 46.1729 51.6134 45.8418 51.5188 45.6052C48.0653 39.0294 42.956 29.1419 36.0489 15.9429C35.1974 14.2871 33.447 13.2463 31.5546 13.2463H23.4649C23.2757 13.2463 23.0392 13.2936 22.8972 13.3883C22.2822 13.7194 22.0457 14.4763 22.3768 15.0914C31.3181 32.217 37.9886 45.0375 42.4356 53.6003C42.5302 53.7896 42.6721 54.0734 42.8613 54.4519C42.4829 54.6411 42.199 54.783 42.0098 54.925C38.0832 56.9119 33.6362 58 28.9527 58C24.3165 58 19.9641 56.9119 16.0848 55.0196C15.8956 54.9249 15.5644 54.783 15.186 54.5465C15.3752 54.168 15.5644 53.8369 15.6591 53.6476C18.3083 48.5856 22.2349 40.969 27.5334 30.845L27.5807 30.7504C27.8173 30.1354 27.5807 29.4258 27.013 29.1419C26.8238 29.0473 26.6346 29 26.4454 29H18.3556H18.1664C16.3687 29.0473 14.7129 30.0881 13.8613 31.6966C10.5971 37.9413 8.18434 42.5775 6.57586 45.6998C6.48124 45.9364 6.29201 46.2675 6.05547 46.6933C5.72431 46.2675 5.48777 45.9364 5.34584 45.6998C1.98695 40.969 0 35.1974 0 28.9527C0 12.9625 12.9625 0 29 0Z" fill="url(#paint0_linear_1881_3538)"/>
<defs>
<linearGradient id="paint0_linear_1881_3538" x1="57.8879" y1="-0.0745492" x2="-0.100939" y2="57.9143" gradientUnits="userSpaceOnUse">
<stop stop-color="#21D4FD"/>
<stop offset="1" stop-color="#B721FF"/>
</linearGradient>
</defs>
</svg>
