<svg width="22" height="22" viewBox="0 0 22 22" fill="none" xmlns="http://www.w3.org/2000/svg">
<path fill-rule="evenodd" clip-rule="evenodd" d="M10.0198 0.71254C6.79169 1.04818 3.96505 2.80338 2.24639 5.53941C0.283775 8.66384 0.165344 12.7131 1.94209 15.9461C2.74956 17.4155 3.90777 18.6728 5.33547 19.6301C6.29655 20.2745 7.75531 20.8843 8.87164 21.1084C9.73293 21.2813 10.0612 21.3127 11.0077 21.3125C11.961 21.3123 12.3516 21.275 13.1543 21.1075C16.7044 20.3669 19.6661 17.7096 20.8096 14.2389C21.1788 13.1183 21.3125 12.2577 21.3125 11.002C21.3125 9.78768 21.1854 8.93317 20.8472 7.87403C20.3447 6.30017 19.5148 4.9338 18.3381 3.74293C16.7255 2.11103 14.7352 1.1067 12.4396 0.766623C11.9448 0.693288 10.5127 0.661323 10.0198 0.71254ZM16.106 6.66386C16.2624 6.73812 16.3725 6.91304 16.3725 7.08732C16.3725 7.25804 14.5753 15.8561 14.4934 16.0769C14.3837 16.373 14.0466 16.5441 13.749 16.4549C13.6686 16.4308 13.069 16.0155 12.4163 15.532C11.7636 15.0485 11.1445 14.5921 11.0406 14.5177L10.8517 14.3824L10.0169 15.1744C8.81433 16.3152 8.84877 16.3388 9.03259 14.5021L9.16679 13.1613L9.49224 12.8542C9.67125 12.6854 10.8161 11.6358 12.0363 10.5218C13.2565 9.40789 14.2605 8.46212 14.2674 8.42006C14.2744 8.37692 14.2468 8.3259 14.2039 8.30294C14.1404 8.26891 13.5978 8.59781 10.9051 10.3027C9.13255 11.425 7.65967 12.3519 7.632 12.3625C7.58924 12.3789 5.53611 11.7174 4.88591 11.4776C4.66107 11.3948 4.55369 11.2619 4.55369 11.0667C4.55369 10.8405 4.63961 10.7998 6.95376 9.9306C10.6798 8.53093 15.3324 6.77558 15.5456 6.68896C15.7904 6.58959 15.9359 6.5831 16.106 6.66386Z" fill="#748FB5"/>
</svg>
