<svg width="22" height="14" viewBox="0 0 22 14" fill="none" xmlns="http://www.w3.org/2000/svg">
<path fill-rule="evenodd" clip-rule="evenodd" d="M5.17492 0.863753C2.03767 1.44861 -0.140986 4.153 0.00711486 7.27862C0.142577 10.1375 2.14854 12.4852 4.98319 13.1026C5.5035 13.2159 6.91018 13.2158 7.43075 13.1024C9.78747 12.5893 11.6234 10.8418 12.2063 8.55691C12.7609 6.38304 12.1264 4.10975 10.5302 2.55133C9.69367 1.7346 8.63929 1.16959 7.45341 0.902555C7.01301 0.803389 5.62546 0.779774 5.17492 0.863753ZM15.6905 1.20728C14.8526 1.4315 14.1008 2.28438 13.5972 3.58201C13.0083 5.09927 12.8547 7.31622 13.2159 9.08265C13.4895 10.4205 13.9752 11.4522 14.6543 12.1376C15.0647 12.552 15.3959 12.7434 15.8472 12.8269C16.9484 13.0307 18.1076 11.9699 18.7104 10.2068C19.025 9.28667 19.1667 8.4361 19.198 7.27862C19.248 5.43382 18.8866 3.81371 18.1495 2.57837C17.9022 2.16399 17.3081 1.55056 16.994 1.38542C16.5496 1.15175 16.1182 1.0928 15.6905 1.20728ZM20.8234 1.77892C20.4205 1.94303 20.0755 3.17272 19.8928 5.09679C19.8246 5.81474 19.8243 8.13809 19.8923 8.8829C20.0751 10.8849 20.4315 12.1049 20.8722 12.2376C20.9886 12.2726 21.2039 12.1 21.3145 11.8829C22.1341 10.2739 22.2449 4.8855 21.5051 2.6155C21.3585 2.16575 21.2642 1.98714 21.1014 1.85084C20.9556 1.72874 20.9501 1.72733 20.8234 1.77892Z" fill="#748FB5"/>
</svg>
