<svg width="22" height="18" viewBox="0 0 22 18" fill="none" xmlns="http://www.w3.org/2000/svg">
<path fill-rule="evenodd" clip-rule="evenodd" d="M7.24555 0.86203C5.87987 1.16014 4.83996 1.48858 3.55361 2.02805C3.34092 2.11724 3.30721 2.15357 3.01063 2.61413C1.58855 4.82225 0.668744 7.09373 0.252445 9.42539C0.0359659 10.6378 -0.00497104 11.1639 0.000452776 12.663C0.00325078 13.4306 0.0218898 14.1627 0.0419493 14.2899L0.0783663 14.5212L0.637966 14.8949C2.03671 15.8291 3.49236 16.5499 5.0149 17.0623C5.32815 17.1677 5.60829 17.245 5.63743 17.234C5.74277 17.1943 6.81509 15.5117 6.81509 15.3862C6.81509 15.3709 6.70373 15.3152 6.56757 15.2624C6.23044 15.1318 5.12876 14.5941 5.05588 14.5246C4.98141 14.4536 5.00031 14.4253 5.23017 14.2632L5.41721 14.1312L5.84711 14.3115C8.11792 15.2638 10.7166 15.5724 13.1213 15.1753C14.2291 14.9923 15.2343 14.6926 16.4167 14.1925C16.5679 14.1285 16.5719 14.1296 16.7611 14.2766C16.8663 14.3584 16.9525 14.4475 16.9525 14.4745C16.9525 14.5338 16.0547 14.9963 15.575 15.1843C15.3856 15.2584 15.213 15.3345 15.1914 15.3533C15.1063 15.4274 16.2224 17.2456 16.3558 17.25C16.3827 17.2509 16.6346 17.1739 16.9154 17.0789C18.5008 16.5425 19.9352 15.835 21.3432 14.8951L21.9028 14.5215L21.9313 14.2901C21.9471 14.1628 21.9737 13.6209 21.9906 13.0859C22.1082 9.35624 21.1263 5.95389 18.9679 2.61231L18.6495 2.11953L18.0593 1.87851C16.9704 1.4339 15.5511 1.01162 14.5021 0.820119L14.1178 0.75L14.0409 0.849131C13.9986 0.903603 13.8619 1.16446 13.7371 1.42874L13.5103 1.90925L13.2943 1.88324C13.1755 1.86895 12.8943 1.83444 12.6694 1.80661C12.1359 1.74059 9.89409 1.74026 9.33329 1.8061C9.09653 1.83393 8.80597 1.8676 8.6876 1.88092L8.47236 1.90519L8.19256 1.34212C7.86636 0.685632 7.92275 0.714221 7.24555 0.86203ZM8.1255 7.83641C8.68557 8.10834 9.0955 8.63652 9.25176 9.28751C9.33733 9.64395 9.31069 10.2305 9.19339 10.5736C8.69582 12.029 7.07242 12.4703 6.01899 11.4365C5.32974 10.7601 5.16186 9.66264 5.6104 8.76517C5.85469 8.27641 6.25669 7.92205 6.76584 7.74662C7.00509 7.6642 7.11387 7.65096 7.43112 7.66572C7.75986 7.68103 7.85233 7.70378 8.1255 7.83641ZM15.4512 7.84021C16.1877 8.19783 16.6307 8.93751 16.629 9.8066C16.6277 10.4406 16.4256 10.9671 16.0192 11.395C14.8988 12.5746 13.0899 11.958 12.7294 10.2735C12.5401 9.38893 12.9334 8.40519 13.6593 7.94755C14.0131 7.7245 14.3105 7.64792 14.749 7.66695C15.0812 7.68137 15.1683 7.70285 15.4512 7.84021Z" fill="#748FB5"/>
</svg>
