<svg width="72" height="72" viewBox="0 0 72 72" fill="none" xmlns="http://www.w3.org/2000/svg">
<rect width="72" height="72" rx="16" fill="white" fill-opacity="0.1"/>
<path d="M38.6399 30.3333H33.3466C31.6799 30.3333 30.3199 31.6799 30.3199 33.3599V38.6533C30.3199 40.3199 31.6666 41.6799 33.3466 41.6799H38.6399C40.3066 41.6799 41.6666 40.3333 41.6666 38.6533V33.3599C41.6666 31.6799 40.3199 30.3333 38.6399 30.3333ZM37.9999 37.3066L36.8133 39.3733C36.6399 39.6799 36.3199 39.8399 35.9999 39.8399C35.8399 39.8399 35.6666 39.7999 35.5333 39.7199C35.0799 39.4666 34.9199 38.8933 35.1866 38.4399L36.0399 36.9599H35.2933C34.6933 36.9599 34.1999 36.6933 33.9333 36.2399C33.6666 35.7866 33.6933 35.2266 33.9999 34.7066L35.1866 32.6399C35.4533 32.1866 36.0266 32.0399 36.4666 32.2933C36.9199 32.5466 37.0799 33.1199 36.8133 33.5733L35.9599 35.0533H36.7066C37.3066 35.0533 37.7999 35.3199 38.0666 35.7733C38.3333 36.2266 38.3066 36.7866 37.9999 37.3066Z" fill="white"/>
<path d="M48.3333 37.0001C48.8933 37.0001 49.3333 36.5467 49.3333 36.0001C49.3333 35.4401 48.8933 35.0001 48.3333 35.0001H46.6666V32.0667H48.3333C48.8933 32.0667 49.3333 31.6267 49.3333 31.0667C49.3333 30.5201 48.8933 30.0667 48.3333 30.0667H46.36C45.72 27.9467 44.0533 26.2801 41.9333 25.6401V23.6667C41.9333 23.1201 41.48 22.6667 40.9333 22.6667C40.3866 22.6667 39.9333 23.1201 39.9333 23.6667V25.3334H37V23.6667C37 23.1201 36.5466 22.6667 36 22.6667C35.4533 22.6667 35 23.1201 35 23.6667V25.3334H32.08V23.6667C32.08 23.1201 31.6266 22.6667 31.08 22.6667C30.52 22.6667 30.08 23.1201 30.08 23.6667V25.6401C27.9466 26.2801 26.28 27.9467 25.64 30.0667H23.6666C23.12 30.0667 22.6666 30.5201 22.6666 31.0667C22.6666 31.6267 23.12 32.0667 23.6666 32.0667H25.3333V35.0001H23.6666C23.12 35.0001 22.6666 35.4401 22.6666 36.0001C22.6666 36.5467 23.12 37.0001 23.6666 37.0001H25.3333V39.9334H23.6666C23.12 39.9334 22.6666 40.3734 22.6666 40.9334C22.6666 41.4801 23.12 41.9334 23.6666 41.9334H25.64C26.2666 44.0534 27.9466 45.7201 30.08 46.3601V48.3334C30.08 48.8801 30.52 49.3334 31.08 49.3334C31.6266 49.3334 32.08 48.8801 32.08 48.3334V46.6667H35.0133V48.3334C35.0133 48.8801 35.4533 49.3334 36.0133 49.3334C36.56 49.3334 37.0133 48.8801 37.0133 48.3334V46.6667H39.9333V48.3334C39.9333 48.8801 40.3866 49.3334 40.9333 49.3334C41.48 49.3334 41.9333 48.8801 41.9333 48.3334V46.3601C44.0533 45.7201 45.72 44.0534 46.36 41.9334H48.3333C48.8933 41.9334 49.3333 41.4801 49.3333 40.9334C49.3333 40.3734 48.8933 39.9334 48.3333 39.9334H46.6666V37.0001H48.3333ZM43.0133 39.0134C43.0133 41.2134 41.2133 43.0134 39.0133 43.0134H32.9866C30.7866 43.0134 28.9866 41.2134 28.9866 39.0134V32.9867C28.9866 30.7867 30.7866 28.9867 32.9866 28.9867H39.0133C41.2133 28.9867 43.0133 30.7867 43.0133 32.9867V39.0134Z" fill="white"/>
</svg>
