<svg width="72" height="72" viewBox="0 0 72 72" fill="none" xmlns="http://www.w3.org/2000/svg">
<rect width="72" height="72" rx="16" fill="white" fill-opacity="0.1"/>
<path d="M41.5866 22.6667H30.4133C25.56 22.6667 22.6666 25.5601 22.6666 30.4134V41.5734C22.6666 46.4401 25.56 49.3334 30.4133 49.3334H41.5733C46.4266 49.3334 49.32 46.4401 49.32 41.5867V30.4134C49.3333 25.5601 46.44 22.6667 41.5866 22.6667ZM43.0133 33.2801L39.9333 37.2534C39.5466 37.7467 39 38.0667 38.3733 38.1334C37.7466 38.2134 37.1333 38.0401 36.64 37.6534L34.2 35.7334C34.1066 35.6534 34 35.6534 33.9466 35.6667C33.8933 35.6667 33.8 35.6934 33.72 35.8001L30.5466 39.9201C30.3466 40.1734 30.0533 40.3067 29.76 40.3067C29.5466 40.3067 29.3333 40.2401 29.1466 40.0934C28.7066 39.7601 28.6266 39.1334 28.96 38.6934L32.1333 34.5734C32.52 34.0801 33.0666 33.7601 33.6933 33.6801C34.3066 33.6001 34.9333 33.7734 35.4266 34.1601L37.8666 36.0801C37.96 36.1601 38.0533 36.1601 38.12 36.1467C38.1733 36.1467 38.2666 36.1201 38.3466 36.0134L41.4266 32.0401C41.76 31.6001 42.4 31.5201 42.8266 31.8667C43.2666 32.2267 43.3466 32.8534 43.0133 33.2801Z" fill="white"/>
</svg>
