<svg width="72" height="72" viewBox="0 0 72 72" fill="none" xmlns="http://www.w3.org/2000/svg">
<rect width="72" height="72" rx="16" fill="white" fill-opacity="0.1"/>
<path d="M41.5866 22.6667H30.4133C26.1333 22.6667 22.6666 26.1334 22.6666 30.4134V33.6667C22.6666 34.4001 23.2666 35.0001 24 35.0001H48C48.7333 35.0001 49.3333 34.4001 49.3333 33.6667V30.4134C49.3333 26.1334 45.8666 22.6667 41.5866 22.6667ZM29 31.0001C29 31.5467 28.5466 32.0001 28 32.0001C27.4533 32.0001 27 31.5467 27 31.0001V28.3334C27 27.7867 27.4533 27.3334 28 27.3334C28.5466 27.3334 29 27.7867 29 28.3334V31.0001ZM34.3333 31.0001C34.3333 31.5467 33.88 32.0001 33.3333 32.0001C32.7866 32.0001 32.3333 31.5467 32.3333 31.0001V28.3334C32.3333 27.7867 32.7866 27.3334 33.3333 27.3334C33.88 27.3334 34.3333 27.7867 34.3333 28.3334V31.0001ZM44 30.6667H38.6666C38.12 30.6667 37.6666 30.2134 37.6666 29.6667C37.6666 29.1201 38.12 28.6667 38.6666 28.6667H44C44.5466 28.6667 45 29.1201 45 29.6667C45 30.2134 44.5466 30.6667 44 30.6667Z" fill="#F7F7F8"/>
<path d="M22.6666 41.5867C22.6666 45.8667 26.1333 49.3333 30.4133 49.3333H41.5733C45.8666 49.3333 49.3333 45.8667 49.3333 41.5867V38.3333C49.3333 37.6 48.7333 37 48 37H24C23.2666 37 22.6666 37.6 22.6666 38.3333V41.5867ZM38.6666 41.6667H44C44.5466 41.6667 45 42.12 45 42.6667C45 43.2133 44.5466 43.6667 44 43.6667H38.6666C38.12 43.6667 37.6666 43.2133 37.6666 42.6667C37.6666 42.12 38.12 41.6667 38.6666 41.6667ZM32.3333 41.3333C32.3333 40.7867 32.7866 40.3333 33.3333 40.3333C33.88 40.3333 34.3333 40.7867 34.3333 41.3333V44C34.3333 44.5467 33.88 45 33.3333 45C32.7866 45 32.3333 44.5467 32.3333 44V41.3333ZM27 41.3333C27 40.7867 27.4533 40.3333 28 40.3333C28.5466 40.3333 29 40.7867 29 41.3333V44C29 44.5467 28.5466 45 28 45C27.4533 45 27 44.5467 27 44V41.3333Z" fill="#F7F7F8"/>
</svg>
