<svg width="72" height="72" viewBox="0 0 72 72" fill="none" xmlns="http://www.w3.org/2000/svg">
<g clip-path="url(#clip0_1860_3575)">
<g opacity="0.1">
<rect width="72" height="72" rx="16" fill="white"/>
</g>
<path d="M39.8 25.2667V30.3334H37.8V25.2667C37.8 24.9067 37.48 24.7334 37.2667 24.7334C37.2 24.7334 37.1334 24.7467 37.0667 24.7734L26.4934 28.7601C25.7867 29.0267 25.3334 29.6934 25.3334 30.4534V31.3467C24.12 32.2534 23.3334 33.7067 23.3334 35.3467V30.4534C23.3334 28.8667 24.3067 27.4534 25.7867 26.8934L36.3734 22.8934C36.6667 22.7867 36.9734 22.7334 37.2667 22.7334C38.6 22.7334 39.8 23.8134 39.8 25.2667Z" fill="white"/>
<path d="M48.6666 39.3334V40.6667C48.6666 41.0267 48.3866 41.3201 48.0133 41.3334H46.0666C45.36 41.3334 44.72 40.8134 44.6666 40.1201C44.6266 39.7067 44.7866 39.3201 45.0533 39.0534C45.2933 38.8001 45.6266 38.6667 45.9866 38.6667H48C48.3866 38.6801 48.6666 38.9734 48.6666 39.3334Z" fill="white"/>
<path d="M45.9734 37.2666H47.3334C48.0667 37.2666 48.6667 36.6666 48.6667 35.9333V35.3466C48.6667 32.5866 46.4134 30.3333 43.6534 30.3333H28.3467C27.2134 30.3333 26.1734 30.7066 25.3334 31.3466C24.12 32.2533 23.3334 33.7066 23.3334 35.3466V44.3199C23.3334 47.0799 25.5867 49.3333 28.3467 49.3333H43.6534C46.4134 49.3333 48.6667 47.0799 48.6667 44.3199V44.0666C48.6667 43.3333 48.0667 42.7333 47.3334 42.7333H46.1734C44.8934 42.7333 43.6667 41.9466 43.3334 40.7066C43.0534 39.6933 43.3867 38.7199 44.0534 38.0666C44.5467 37.5599 45.2267 37.2666 45.9734 37.2666ZM38.6667 36.9999H29.3334C28.7867 36.9999 28.3334 36.5466 28.3334 35.9999C28.3334 35.4533 28.7867 34.9999 29.3334 34.9999H38.6667C39.2134 34.9999 39.6667 35.4533 39.6667 35.9999C39.6667 36.5466 39.2134 36.9999 38.6667 36.9999Z" fill="white"/>
</g>
<defs>
<clipPath id="clip0_1860_3575">
<rect width="72" height="72" fill="white"/>
</clipPath>
</defs>
</svg>
