<svg width="22" height="23" viewBox="0 0 22 23" fill="none" xmlns="http://www.w3.org/2000/svg">
<path d="M11 1.875C5.68477 1.875 1.375 6.18477 1.375 11.5C1.375 16.8152 5.68477 21.125 11 21.125C16.3152 21.125 20.625 16.8152 20.625 11.5C20.625 6.18477 16.3152 1.875 11 1.875ZM11 19.4922C6.58711 19.4922 3.00781 15.9129 3.00781 11.5C3.00781 7.08711 6.58711 3.50781 11 3.50781C15.4129 3.50781 18.9922 7.08711 18.9922 11.5C18.9922 15.9129 15.4129 19.4922 11 19.4922Z" fill="#A0AEC0"/>
<path d="M13.3977 7.3041C12.7531 6.73906 11.9023 6.42969 11 6.42969C10.0977 6.42969 9.24687 6.74121 8.60234 7.3041C7.93203 7.89063 7.5625 8.6791 7.5625 9.52344V9.68672C7.5625 9.78125 7.63984 9.85859 7.73437 9.85859H8.76562C8.86016 9.85859 8.9375 9.78125 8.9375 9.68672V9.52344C8.9375 8.57598 9.86348 7.80469 11 7.80469C12.1365 7.80469 13.0625 8.57598 13.0625 9.52344C13.0625 10.1916 12.5898 10.8039 11.8572 11.0854C11.4018 11.2594 11.015 11.5645 10.7379 11.9641C10.4564 12.3723 10.3104 12.8621 10.3104 13.3584V13.8203C10.3104 13.9148 10.3877 13.9922 10.4822 13.9922H11.5135C11.608 13.9922 11.6854 13.9148 11.6854 13.8203V13.3326C11.6865 13.124 11.7504 12.9207 11.8688 12.749C11.9872 12.5773 12.1547 12.4453 12.3492 12.3701C13.6168 11.8824 14.4354 10.7652 14.4354 9.52344C14.4375 8.6791 14.068 7.89063 13.3977 7.3041ZM10.1406 16.2266C10.1406 16.4545 10.2312 16.6731 10.3923 16.8342C10.5535 16.9954 10.7721 17.0859 11 17.0859C11.2279 17.0859 11.4465 16.9954 11.6077 16.8342C11.7688 16.6731 11.8594 16.4545 11.8594 16.2266C11.8594 15.9986 11.7688 15.7801 11.6077 15.6189C11.4465 15.4577 11.2279 15.3672 11 15.3672C10.7721 15.3672 10.5535 15.4577 10.3923 15.6189C10.2312 15.7801 10.1406 15.9986 10.1406 16.2266Z" fill="#A0AEC0"/>
</svg>
