<svg width="24" height="25" viewBox="0 0 24 25" fill="none" xmlns="http://www.w3.org/2000/svg">
<path d="M12.66 3.01814L12.63 3.08814L9.73002 9.81814H6.88002C6.20002 9.81814 5.55002 9.95814 4.96002 10.2081L6.71002 6.02814L6.75002 5.92814L6.82002 5.76814C6.84002 5.70814 6.86002 5.64814 6.89002 5.59814C8.20002 2.56814 9.68002 1.87814 12.66 3.01814Z" stroke="#A0AEC0" stroke-width="1.5" stroke-linecap="round" stroke-linejoin="round"/>
<path d="M18.05 10.0181C17.6 9.87813 17.12 9.81813 16.64 9.81813H9.72998L12.63 3.08813L12.66 3.01813C12.81 3.06813 12.95 3.13813 13.1 3.19813L15.31 4.12813C16.54 4.63813 17.4 5.16813 17.92 5.80813C18.02 5.92813 18.1 6.03813 18.17 6.16813C18.26 6.30813 18.33 6.44813 18.37 6.59813C18.41 6.68813 18.44 6.77813 18.46 6.85813C18.73 7.69813 18.57 8.72813 18.05 10.0181Z" stroke="#A0AEC0" stroke-width="1.5" stroke-linecap="round" stroke-linejoin="round"/>
<path d="M21.5217 14.6984V16.6484C21.5217 16.8484 21.5117 17.0484 21.5017 17.2484C21.3117 20.7384 19.3617 22.4984 15.6617 22.4984H7.86172C7.62172 22.4984 7.38172 22.4784 7.15172 22.4484C3.97172 22.2384 2.27172 20.5384 2.06172 17.3584C2.03172 17.1284 2.01172 16.8884 2.01172 16.6484V14.6984C2.01172 12.6884 3.23172 10.9584 4.97172 10.2084C5.57172 9.95836 6.21172 9.81836 6.89172 9.81836H16.6517C17.1417 9.81836 17.6217 9.88836 18.0617 10.0184C20.0517 10.6284 21.5217 12.4884 21.5217 14.6984Z" stroke="#A0AEC0" stroke-width="1.5" stroke-linecap="round" stroke-linejoin="round"/>
<path d="M6.71 6.02814L4.96 10.2081C3.22 10.9581 2 12.6881 2 14.6981V11.7681C2 8.92814 4.02 6.55814 6.71 6.02814Z" stroke="#A0AEC0" stroke-width="1.5" stroke-linecap="round" stroke-linejoin="round"/>
<path d="M21.5186 11.7677V14.6977C21.5186 12.4977 20.0586 10.6277 18.0586 10.0277C18.5786 8.72766 18.7286 7.70766 18.4786 6.85766C18.4586 6.76766 18.4286 6.67766 18.3886 6.59766C20.2486 7.55766 21.5186 9.52766 21.5186 11.7677Z" stroke="#A0AEC0" stroke-width="1.5" stroke-linecap="round" stroke-linejoin="round"/>
</svg>
