<svg width="20" height="20" viewBox="0 0 20 20" fill="none" xmlns="http://www.w3.org/2000/svg">
<path d="M13.4917 1.6665H6.50841C3.83341 1.6665 1.66675 3.83317 1.66675 6.50817V8.5415C1.66675 8.99984 2.04175 9.37484 2.50008 9.37484H17.5001C17.9584 9.37484 18.3334 8.99984 18.3334 8.5415V6.50817C18.3334 3.83317 16.1667 1.6665 13.4917 1.6665ZM5.62508 6.87484C5.62508 7.2165 5.34175 7.49984 5.00008 7.49984C4.65841 7.49984 4.37508 7.2165 4.37508 6.87484V5.20817C4.37508 4.8665 4.65841 4.58317 5.00008 4.58317C5.34175 4.58317 5.62508 4.8665 5.62508 5.20817V6.87484ZM8.95841 6.87484C8.95841 7.2165 8.67508 7.49984 8.33341 7.49984C7.99175 7.49984 7.70841 7.2165 7.70841 6.87484V5.20817C7.70841 4.8665 7.99175 4.58317 8.33341 4.58317C8.67508 4.58317 8.95841 4.8665 8.95841 5.20817V6.87484ZM15.0001 6.6665H11.6667C11.3251 6.6665 11.0417 6.38317 11.0417 6.0415C11.0417 5.69984 11.3251 5.4165 11.6667 5.4165H15.0001C15.3417 5.4165 15.6251 5.69984 15.6251 6.0415C15.6251 6.38317 15.3417 6.6665 15.0001 6.6665Z" fill="white"/>
<path d="M1.66675 13.4917C1.66675 16.1667 3.83341 18.3333 6.50841 18.3333H13.4834C16.1667 18.3333 18.3334 16.1667 18.3334 13.4917V11.4583C18.3334 11 17.9584 10.625 17.5001 10.625H2.50008C2.04175 10.625 1.66675 11 1.66675 11.4583V13.4917ZM11.6667 13.5417H15.0001C15.3417 13.5417 15.6251 13.825 15.6251 14.1667C15.6251 14.5083 15.3417 14.7917 15.0001 14.7917H11.6667C11.3251 14.7917 11.0417 14.5083 11.0417 14.1667C11.0417 13.825 11.3251 13.5417 11.6667 13.5417ZM7.70841 13.3333C7.70841 12.9917 7.99175 12.7083 8.33341 12.7083C8.67508 12.7083 8.95841 12.9917 8.95841 13.3333V15C8.95841 15.3417 8.67508 15.625 8.33341 15.625C7.99175 15.625 7.70841 15.3417 7.70841 15V13.3333ZM4.37508 13.3333C4.37508 12.9917 4.65841 12.7083 5.00008 12.7083C5.34175 12.7083 5.62508 12.9917 5.62508 13.3333V15C5.62508 15.3417 5.34175 15.625 5.00008 15.625C4.65841 15.625 4.37508 15.3417 4.37508 15V13.3333Z" fill="white"/>
</svg>
