<svg width="25" height="24" viewBox="0 0 25 24" fill="none" xmlns="http://www.w3.org/2000/svg">
<path d="M12.5 2C6.98 2 2.5 6.48 2.5 12C2.5 17.52 6.98 22 12.5 22C18.02 22 22.5 17.52 22.5 12C22.5 6.48 18.02 2 12.5 2ZM7.1 11.23C7.27 10.04 7.8 8.97 8.63 8.13C10.63 6.14 13.78 6.03 15.92 7.77V6.82C15.92 6.41 16.26 6.07 16.67 6.07C17.08 6.07 17.42 6.41 17.42 6.82V9.49C17.42 9.9 17.08 10.24 16.67 10.24H14C13.59 10.24 13.25 9.9 13.25 9.49C13.25 9.08 13.59 8.74 14 8.74H14.75C13.2 7.66 11.06 7.81 9.68 9.19C9.08 9.79 8.7 10.57 8.57 11.44C8.52 11.81 8.2 12.08 7.83 12.08C7.79 12.08 7.76 12.08 7.72 12.07C7.33 12.02 7.04 11.64 7.1 11.23ZM16.37 15.87C15.3 16.94 13.9 17.47 12.5 17.47C11.28 17.47 10.07 17.04 9.07 16.23V17.17C9.07 17.58 8.73 17.92 8.32 17.92C7.91 17.92 7.57 17.58 7.57 17.17V14.5C7.57 14.09 7.91 13.75 8.32 13.75H10.99C11.4 13.75 11.74 14.09 11.74 14.5C11.74 14.91 11.4 15.25 10.99 15.25H10.24C11.79 16.33 13.93 16.18 15.31 14.8C15.91 14.2 16.29 13.42 16.42 12.55C16.48 12.14 16.85 11.85 17.27 11.91C17.68 11.97 17.96 12.35 17.91 12.76C17.73 13.97 17.2 15.04 16.37 15.87Z" fill="white"/>
</svg>
