<svg width="42" height="42" viewBox="0 0 42 42" fill="none" xmlns="http://www.w3.org/2000/svg">
<path d="M27.3175 9.62491V27.4049C27.3175 28.1049 27.1075 28.7874 26.7225 29.3649L21.945 36.4699C21.1925 37.6074 19.32 38.4124 17.7275 37.8174C16.0125 37.2399 14.875 35.3149 15.2425 33.5999L16.1525 27.8774C16.2225 27.3524 16.0825 26.8799 15.785 26.5124C15.4875 26.1799 15.05 25.9699 14.5775 25.9699H7.38503C6.00253 25.9699 4.81253 25.4099 4.11253 24.4299C3.44753 23.4849 3.32503 22.2599 3.76253 21.0174L8.06753 7.90991C8.61003 5.73991 10.9725 3.97241 13.3175 3.97241H20.1425C21.315 3.97241 22.96 4.37491 23.7125 5.12741L25.9525 6.85991C26.81 7.52491 27.3175 8.53991 27.3175 9.62491Z" fill="#BAC3CA"/>
<path d="M32.8825 30.8175H34.685C37.3975 30.8175 38.5 29.7675 38.5 27.1775V9.58995C38.5 6.99995 37.3975 5.94995 34.685 5.94995H32.8825C30.17 5.94995 29.0675 6.99995 29.0675 9.58995V27.195C29.0675 29.7675 30.17 30.8175 32.8825 30.8175Z" fill="#BAC3CA"/>
</svg>
