<svg width="20" height="21" viewBox="0 0 20 21" fill="none" xmlns="http://www.w3.org/2000/svg">
<path d="M14.825 19.4583H5.17502C2.89169 19.4583 1.04169 17.6 1.04169 15.3167V9.14166C1.04169 8.00833 1.74169 6.58333 2.64169 5.88333L7.13335 2.38333C8.48335 1.33333 10.6417 1.28333 12.0417 2.26667L17.1917 5.875C18.1834 6.56666 18.9584 8.05 18.9584 9.25833V15.325C18.9584 17.6 17.1084 19.4583 14.825 19.4583ZM7.90002 3.36667L3.40835 6.86666C2.81669 7.33333 2.29169 8.39166 2.29169 9.14166V15.3167C2.29169 16.9083 3.58335 18.2083 5.17502 18.2083H14.825C16.4167 18.2083 17.7084 16.9167 17.7084 15.325V9.25833C17.7084 8.45833 17.1334 7.35 16.475 6.9L11.325 3.29167C10.375 2.625 8.80835 2.65833 7.90002 3.36667Z" fill="white"/>
<path d="M10 16.125C9.65833 16.125 9.375 15.8417 9.375 15.5V13C9.375 12.6583 9.65833 12.375 10 12.375C10.3417 12.375 10.625 12.6583 10.625 13V15.5C10.625 15.8417 10.3417 16.125 10 16.125Z" fill="white"/>
</svg>
