<svg width="20" height="20" viewBox="0 0 20 20" fill="none" xmlns="http://www.w3.org/2000/svg">
<path fill-rule="evenodd" clip-rule="evenodd" d="M2 10C2 5.58172 5.58172 2 10 2C14.4183 2 18 5.58172 18 10C18 10.2444 17.9956 11.1009 17.7388 11.8713C17.6121 12.2514 17.4466 12.5388 17.2545 12.7223C17.0862 12.8831 16.8638 13 16.5 13C16.0962 13 15.902 12.8892 15.7695 12.7538C15.6032 12.5838 15.4253 12.2591 15.2876 11.6534C15.0062 10.415 15 8.5531 15 6C15 5.44772 14.5523 5 14 5C13.4478 5 13.0002 5.44752 13 5.99964C12.1643 5.37195 11.1256 5 10 5C7.23858 5 5 7.23858 5 10C5 12.7614 7.23858 15 10 15C11.4937 15 12.8343 14.3451 13.7505 13.3067C13.9047 13.6175 14.0971 13.9043 14.3399 14.1524C14.9105 14.7358 15.6538 15 16.5 15C17.3862 15 18.1013 14.6794 18.6362 14.1683C19.1472 13.68 19.4504 13.0611 19.6362 12.5037C20.0003 11.4115 20.0001 10.2812 20 10.0089V10C20 4.47715 15.5228 0 10 0C4.47715 0 0 4.47715 0 10C0 15.5228 4.47715 20 10 20C11.5947 20 13.1049 19.626 14.445 18.96C14.9396 18.7142 15.1413 18.114 14.8955 17.6194C14.6497 17.1249 14.0495 16.9232 13.555 17.169C12.4852 17.7006 11.279 18 10 18C5.58172 18 2 14.4183 2 10ZM13 10C13 11.6569 11.6569 13 10 13C8.34315 13 7 11.6569 7 10C7 8.34315 8.34315 7 10 7C11.6569 7 13 8.34315 13 10Z" fill="white"/>
</svg>
