<svg width="20" height="20" viewBox="0 0 20 20" fill="none" xmlns="http://www.w3.org/2000/svg">
<path d="M10.1373 0C4.85324 0 0.564697 4.48 0.564697 10C0.564697 15.52 4.85324 20 10.1373 20C15.4214 20 19.71 15.52 19.71 10C19.71 4.48 15.4214 0 10.1373 0ZM7.54316 14.29L4.10658 10.7C3.73324 10.31 3.73324 9.68 4.10658 9.29C4.47991 8.9 5.08299 8.9 5.45632 9.29L8.22282 12.17L14.8088 5.29C15.1821 4.9 15.7852 4.9 16.1585 5.29C16.5319 5.68 16.5319 6.31 16.1585 6.7L8.8929 14.29C8.52914 14.68 7.91649 14.68 7.54316 14.29Z" fill="white"/>
</svg>
