<svg width="20" height="21" viewBox="0 0 20 21" fill="none" xmlns="http://www.w3.org/2000/svg">
<path d="M9.99984 2.60938C5.40817 2.60938 1.6665 6.35104 1.6665 10.9427C1.6665 15.5344 5.40817 19.276 9.99984 19.276C14.5915 19.276 18.3332 15.5344 18.3332 10.9427C18.3332 6.35104 14.5915 2.60938 9.99984 2.60938ZM12.7998 12.8594C13.0415 13.101 13.0415 13.501 12.7998 13.7427C12.6748 13.8677 12.5165 13.926 12.3582 13.926C12.1998 13.926 12.0415 13.8677 11.9165 13.7427L9.99984 11.826L8.08317 13.7427C7.95817 13.8677 7.79984 13.926 7.6415 13.926C7.48317 13.926 7.32484 13.8677 7.19984 13.7427C6.95817 13.501 6.95817 13.101 7.19984 12.8594L9.1165 10.9427L7.19984 9.02604C6.95817 8.78437 6.95817 8.38438 7.19984 8.14271C7.4415 7.90104 7.8415 7.90104 8.08317 8.14271L9.99984 10.0594L11.9165 8.14271C12.1582 7.90104 12.5582 7.90104 12.7998 8.14271C13.0415 8.38438 13.0415 8.78437 12.7998 9.02604L10.8832 10.9427L12.7998 12.8594Z" fill="#29F1E5"/>
</svg>
