<svg width="21" height="20" viewBox="0 0 21 20" fill="none" xmlns="http://www.w3.org/2000/svg">
<path d="M11.3835 2.09847L11.3585 2.1568L8.9418 7.76513H6.5668C6.00013 7.76513 5.45846 7.8818 4.9668 8.09013L6.42513 4.6068L6.45846 4.52347L6.5168 4.39013C6.53346 4.34013 6.55013 4.29013 6.57513 4.24847C7.6668 1.72347 8.90013 1.14847 11.3835 2.09847Z" stroke="#E8EDFF" stroke-width="1.5" stroke-linecap="round" stroke-linejoin="round"/>
<path d="M15.8747 7.93178C15.4997 7.81512 15.0997 7.76512 14.6997 7.76512H8.94141L11.3581 2.15678L11.3831 2.09845C11.5081 2.14012 11.6247 2.19845 11.7497 2.24845L13.5914 3.02345C14.6164 3.44845 15.3331 3.89012 15.7664 4.42345C15.8497 4.52345 15.9164 4.61512 15.9747 4.72345C16.0497 4.84012 16.1081 4.95678 16.1414 5.08178C16.1747 5.15678 16.1997 5.23178 16.2164 5.29845C16.4414 5.99845 16.3081 6.85678 15.8747 7.93178Z" stroke="#E8EDFF" stroke-width="1.5" stroke-linecap="round" stroke-linejoin="round"/>
<path d="M18.7681 11.832V13.457C18.7681 13.6236 18.7598 13.7903 18.7514 13.957C18.5931 16.8653 16.9681 18.332 13.8848 18.332H7.38477C7.18477 18.332 6.98477 18.3153 6.7931 18.2903C4.1431 18.1153 2.72643 16.6986 2.55143 14.0486C2.52643 13.857 2.50977 13.657 2.50977 13.457V11.832C2.50977 10.157 3.52643 8.71529 4.97643 8.09029C5.47643 7.88196 6.00977 7.76529 6.57643 7.76529H14.7098C15.1181 7.76529 15.5181 7.82362 15.8848 7.93196C17.5431 8.44029 18.7681 9.99029 18.7681 11.832Z" stroke="#E8EDFF" stroke-width="1.5" stroke-linecap="round" stroke-linejoin="round"/>
<path d="M6.425 4.60678L4.96667 8.09011C3.51667 8.71511 2.5 10.1568 2.5 11.8318V9.39011C2.5 7.02345 4.18333 5.04845 6.425 4.60678Z" stroke="#E8EDFF" stroke-width="1.5" stroke-linecap="round" stroke-linejoin="round"/>
<path d="M18.7661 9.38972V11.8314C18.7661 9.99806 17.5495 8.43972 15.8828 7.93972C16.3161 6.85639 16.4411 6.00639 16.2328 5.29806C16.2161 5.22306 16.1911 5.14806 16.1578 5.08139C17.7078 5.88139 18.7661 7.52306 18.7661 9.38972Z" stroke="#E8EDFF" stroke-width="1.5" stroke-linecap="round" stroke-linejoin="round"/>
</svg>
