<svg width="21" height="20" viewBox="0 0 21 20" fill="none" xmlns="http://www.w3.org/2000/svg">
<path d="M6.83529 8.33333L5.16862 8.33333C4.72659 8.33333 4.30267 8.50893 3.99011 8.82149C3.67755 9.13405 3.50195 9.55797 3.50195 10L3.50195 15.8333C3.50195 16.2754 3.67755 16.6993 3.99011 17.0118C4.30267 17.3244 4.72659 17.5 5.16862 17.5L15.1686 17.5C15.6106 17.5 16.0346 17.3244 16.3471 17.0118C16.6597 16.6993 16.8353 16.2754 16.8353 15.8333L16.8353 10C16.8353 9.55797 16.6597 9.13405 16.3471 8.82149C16.0346 8.50893 15.6106 8.33333 15.1686 8.33333L13.502 8.33333" stroke="#FAFAFA" stroke-width="1.5" stroke-linecap="round" stroke-linejoin="round"/>
<path d="M10.168 14.1667L10.168 2.49999M10.168 2.49999L7.66797 4.99999M10.168 2.49999L12.668 4.99999" stroke="#FAFAFA" stroke-width="1.5" stroke-linecap="round" stroke-linejoin="round"/>
</svg>
