<svg width="36" height="36" viewBox="0 0 36 36" fill="none" xmlns="http://www.w3.org/2000/svg">
<path d="M18 0.5C8.375 0.5 0.5 8.515 0.5 18.315V32.1225C0.5 34.3275 1.8125 34.9225 3.4225 33.4525L5.1725 31.86C5.82 31.265 6.87 31.265 7.5175 31.86L11.0175 35.0625C11.665 35.6575 12.715 35.6575 13.3625 35.0625L16.8625 31.86C17.51 31.265 18.56 31.265 19.2075 31.86L22.7075 35.0625C23.355 35.6575 24.405 35.6575 25.0525 35.0625L28.5525 31.86C29.2 31.265 30.25 31.265 30.8975 31.86L32.6475 33.4525C34.2575 34.9225 35.57 34.3275 35.57 32.1225V18.315C35.5 8.515 27.625 0.5 18 0.5ZM18 8.585C20.2925 8.585 22.165 10.4575 22.165 12.75C22.165 15.0425 20.2925 16.915 18 16.915C15.7075 16.915 13.835 15.0425 13.835 12.75C13.835 10.4575 15.7075 8.585 18 8.585ZM25.7875 22.55C23.495 24.265 20.7475 25.1225 18 25.1225C15.2525 25.1225 12.505 24.265 10.2125 22.55C9.635 22.1125 9.5125 21.29 9.95 20.7125C10.3875 20.135 11.21 20.0125 11.7875 20.45C15.445 23.1975 20.555 23.1975 24.2125 20.45C24.79 20.0125 25.6125 20.135 26.05 20.7125C26.4875 21.29 26.365 22.1125 25.7875 22.55Z" fill="white"/>
</svg>
