<svg width="22" height="23" viewBox="0 0 22 23" fill="none" xmlns="http://www.w3.org/2000/svg">
<path d="M20.1667 6H5.83336C3.62422 6 1.83335 7.79086 1.83335 10V16.6667C1.83335 18.8758 3.62421 20.6667 5.83335 20.6667H16.1667C18.3758 20.6667 20.1667 18.8758 20.1667 16.6667V6Z" stroke="#A0AEC0" stroke-width="1.5" stroke-linejoin="round"/>
<path d="M20.1667 5.99998C20.1667 3.97494 18.5251 2.33331 16.5 2.33331H11C8.97497 2.33331 7.33335 3.97494 7.33335 5.99998V5.99998H20.1667V5.99998Z" stroke="#A0AEC0" stroke-width="1.5" stroke-linejoin="round"/>
<path d="M1.83331 11.5L1.83331 15.1667L5.49998 15.1667C6.5125 15.1667 7.33331 14.3459 7.33331 13.3333V13.3333C7.33331 12.3208 6.5125 11.5 5.49998 11.5L1.83331 11.5Z" stroke="#A0AEC0" stroke-width="1.5" stroke-linejoin="round"/>
</svg>
