<svg width="22" height="22" viewBox="0 0 22 22" fill="none" xmlns="http://www.w3.org/2000/svg">
<path fill-rule="evenodd" clip-rule="evenodd" d="M10.2341 0.706908C8.73845 0.850227 7.60159 1.16838 6.35915 1.79139C5.37209 2.28631 4.56925 2.87373 3.72158 3.72119C2.81506 4.62757 2.2463 5.42348 1.70407 6.54463C1.06848 7.85872 0.747283 9.16632 0.694273 10.6556C0.63308 12.3745 0.986611 14.0104 1.75152 15.5481C2.29036 16.6313 2.844 17.3976 3.72158 18.2751C4.60883 19.1621 5.37878 19.7161 6.46497 20.2488C7.22286 20.6205 7.7122 20.8014 8.48054 20.9941C10.4967 21.4997 12.5187 21.4027 14.4885 20.7061C15.0856 20.4949 16.1279 19.9726 16.6637 19.6161C18.135 18.6373 19.3509 17.2858 20.156 15.7343C20.8844 14.3305 21.2488 12.9378 21.3057 11.3407C21.3669 9.62182 21.0134 7.98592 20.2485 6.44819C19.7462 5.43847 19.187 4.64711 18.4019 3.83488C17.5313 2.93411 16.6774 2.31263 15.535 1.7483C14.341 1.15847 13.2284 0.843617 11.907 0.721538C11.4963 0.683613 10.5627 0.675431 10.2341 0.706908ZM13.9761 6.42699C14.2834 6.53 14.5936 6.7081 14.8353 6.92022L14.9764 7.04411L15.2557 6.97164C15.5916 6.88451 16.0363 6.71096 16.2707 6.5755C16.3656 6.52069 16.442 6.49671 16.442 6.52178C16.442 6.60916 16.2054 7.03452 16.0416 7.24176C15.9506 7.35686 15.7852 7.51896 15.674 7.60195C15.5628 7.68493 15.4895 7.75873 15.5112 7.76594C15.5742 7.78694 16.3634 7.58627 16.575 7.49543L16.7684 7.41236L16.6959 7.53742C16.5947 7.71205 15.9582 8.37992 15.7661 8.513L15.607 8.62327L15.5832 9.23636C15.5443 10.24 15.3236 11.078 14.8485 12.0259C13.8832 13.9519 12.1575 15.247 10.1002 15.5895C8.57583 15.8432 7.19235 15.6474 5.8603 14.9892C5.13352 14.6301 5.13308 14.6464 5.87009 14.6404C6.40926 14.636 6.56369 14.6199 6.89166 14.5336C7.54173 14.3626 8.14216 14.0884 8.57495 13.7649L8.70971 13.6642L8.51448 13.639C8.22533 13.6016 7.82455 13.4675 7.57353 13.3241C7.27341 13.1526 6.85542 12.7236 6.70131 12.4289C6.47747 12.0008 6.46142 12.0259 6.95927 12.0259C7.54741 12.0259 7.63093 11.9872 7.29079 11.8724C7.147 11.8238 6.93863 11.7313 6.82777 11.6667C6.54511 11.5021 6.12655 11.0638 5.97015 10.7687C5.82797 10.5004 5.6789 9.98318 5.6789 9.75813C5.6789 9.64085 5.6899 9.62404 5.74944 9.65028C5.94914 9.73822 6.36564 9.86288 6.52769 9.88323L6.71135 9.90628L6.40603 9.59575C5.91871 9.10018 5.70433 8.57773 5.70808 7.89479C5.71014 7.51848 5.75577 7.30362 5.90504 6.96749L6.00364 6.7455L6.51649 7.25111C7.47944 8.20041 8.63259 8.82519 9.89144 9.07971C10.2111 9.14431 10.8697 9.22077 10.8943 9.1961C10.9014 9.18905 10.8912 9.08833 10.8718 8.9723C10.7989 8.53686 10.9322 7.89306 11.1844 7.46282C11.5172 6.89515 12.2034 6.42429 12.844 6.32417C13.1796 6.27166 13.6367 6.31317 13.9761 6.42699Z" fill="white"/>
</svg>
