<svg width="21" height="20" viewBox="0 0 21 20" fill="none" xmlns="http://www.w3.org/2000/svg">
<path d="M18.2084 10.6248C18.5584 10.6248 18.8334 10.3415 18.8334 9.99984C18.8334 9.64984 18.5584 9.37484 18.2084 9.37484H17.1667V7.5415H18.2084C18.5584 7.5415 18.8334 7.2665 18.8334 6.9165C18.8334 6.57484 18.5584 6.2915 18.2084 6.2915H16.9751C16.5751 4.9665 15.5334 3.92484 14.2084 3.52484V2.2915C14.2084 1.94984 13.9251 1.6665 13.5834 1.6665C13.2417 1.6665 12.9584 1.94984 12.9584 2.2915V3.33317H11.1251V2.2915C11.1251 1.94984 10.8417 1.6665 10.5001 1.6665C10.1584 1.6665 9.87508 1.94984 9.87508 2.2915V3.33317H8.05008V2.2915C8.05008 1.94984 7.76675 1.6665 7.42508 1.6665C7.07508 1.6665 6.80008 1.94984 6.80008 2.2915V3.52484C5.46675 3.92484 4.42508 4.9665 4.02508 6.2915H2.79175C2.45008 6.2915 2.16675 6.57484 2.16675 6.9165C2.16675 7.2665 2.45008 7.5415 2.79175 7.5415H3.83341V9.37484H2.79175C2.45008 9.37484 2.16675 9.64984 2.16675 9.99984C2.16675 10.3415 2.45008 10.6248 2.79175 10.6248H3.83341V12.4582H2.79175C2.45008 12.4582 2.16675 12.7332 2.16675 13.0832C2.16675 13.4248 2.45008 13.7082 2.79175 13.7082H4.02508C4.41675 15.0332 5.46675 16.0748 6.80008 16.4748V17.7082C6.80008 18.0498 7.07508 18.3332 7.42508 18.3332C7.76675 18.3332 8.05008 18.0498 8.05008 17.7082V16.6665H9.88341V17.7082C9.88341 18.0498 10.1584 18.3332 10.5084 18.3332C10.8501 18.3332 11.1334 18.0498 11.1334 17.7082V16.6665H12.9584V17.7082C12.9584 18.0498 13.2417 18.3332 13.5834 18.3332C13.9251 18.3332 14.2084 18.0498 14.2084 17.7082V16.4748C15.5334 16.0748 16.5751 15.0332 16.9751 13.7082H18.2084C18.5584 13.7082 18.8334 13.4248 18.8334 13.0832C18.8334 12.7332 18.5584 12.4582 18.2084 12.4582H17.1667V10.6248H18.2084ZM14.8834 11.8832C14.8834 13.2582 13.7584 14.3832 12.3834 14.3832H8.61675C7.24175 14.3832 6.11675 13.2582 6.11675 11.8832V8.1165C6.11675 6.7415 7.24175 5.6165 8.61675 5.6165H12.3834C13.7584 5.6165 14.8834 6.7415 14.8834 8.1165V11.8832Z" fill="white"/>
<path d="M8.84992 13.5419H12.1583C13.1999 13.5419 14.0499 12.7002 14.0499 11.6502V8.34186C14.0499 7.3002 13.2083 6.4502 12.1583 6.4502H8.84992C7.80825 6.4502 6.95825 7.29186 6.95825 8.34186V11.6502C6.95825 12.7002 7.79992 13.5419 8.84992 13.5419Z" fill="white"/>
</svg>
