<svg width="20" height="21" viewBox="0 0 20 21" fill="none" xmlns="http://www.w3.org/2000/svg">
<path d="M10 5.13336H18.3333" stroke="#A0AEC0" stroke-width="1.5" stroke-miterlimit="10" stroke-linecap="round" stroke-linejoin="round"/>
<path d="M11.85 2.16669H16.4833C17.9667 2.16669 18.3333 2.53335 18.3333 4.00002V7.42502C18.3333 8.89169 17.9667 9.25835 16.4833 9.25835H11.85C10.3667 9.25835 10 8.89169 10 7.42502V4.00002C10 2.53335 10.3667 2.16669 11.85 2.16669Z" stroke="#A0AEC0" stroke-width="1.5" stroke-linecap="round" stroke-linejoin="round"/>
<path d="M1.6665 14.7167H9.99984" stroke="#A0AEC0" stroke-width="1.5" stroke-miterlimit="10" stroke-linecap="round" stroke-linejoin="round"/>
<path d="M3.5165 11.75H8.14984C9.63317 11.75 9.99984 12.1167 9.99984 13.5833V17.0083C9.99984 18.475 9.63317 18.8417 8.14984 18.8417H3.5165C2.03317 18.8417 1.6665 18.475 1.6665 17.0083V13.5833C1.6665 12.1167 2.03317 11.75 3.5165 11.75Z" stroke="#A0AEC0" stroke-width="1.5" stroke-linecap="round" stroke-linejoin="round"/>
<path d="M18.3333 13C18.3333 16.225 15.725 18.8333 12.5 18.8333L13.375 17.375" stroke="#A0AEC0" stroke-width="1.5" stroke-linecap="round" stroke-linejoin="round"/>
<path d="M1.6665 8.00002C1.6665 4.77502 4.27484 2.16669 7.49984 2.16669L6.62485 3.62502" stroke="#A0AEC0" stroke-width="1.5" stroke-linecap="round" stroke-linejoin="round"/>
</svg>
