<svg width="42" height="42" viewBox="0 0 42 42" fill="none" xmlns="http://www.w3.org/2000/svg">
<path d="M25.9875 6.91289V13.5629H23.3625V6.91289C23.3625 6.44039 22.9425 6.21289 22.6625 6.21289C22.575 6.21289 22.4875 6.23039 22.4 6.26539L8.5225 11.4979C7.595 11.8479 7 12.7229 7 13.7204V14.8929C5.4075 16.0829 4.375 17.9904 4.375 20.1429V13.7204C4.375 11.6379 5.6525 9.78289 7.595 9.04789L21.49 3.79789C21.875 3.65789 22.2775 3.58789 22.6625 3.58789C24.4125 3.58789 25.9875 5.00539 25.9875 6.91289Z" fill="#5129F1"/>
<path d="M37.6252 25.375V27.125C37.6252 27.5975 37.2577 27.9825 36.7677 28H34.2127C33.2852 28 32.4452 27.3175 32.3752 26.4075C32.3227 25.865 32.5327 25.3575 32.8827 25.0075C33.1977 24.675 33.6352 24.5 34.1077 24.5H36.7502C37.2577 24.5175 37.6252 24.9025 37.6252 25.375Z" fill="#5129F1"/>
<path d="M34.09 22.6625H35.875C36.8375 22.6625 37.625 21.875 37.625 20.9125V20.1425C37.625 16.52 34.6675 13.5625 31.045 13.5625H10.955C9.4675 13.5625 8.1025 14.0525 7 14.8925C5.4075 16.0825 4.375 17.99 4.375 20.1425V31.92C4.375 35.5425 7.3325 38.5 10.955 38.5H31.045C34.6675 38.5 37.625 35.5425 37.625 31.92V31.5875C37.625 30.625 36.8375 29.8375 35.875 29.8375H34.3525C32.6725 29.8375 31.0625 28.805 30.625 27.1775C30.2575 25.8475 30.695 24.57 31.57 23.7125C32.2175 23.0475 33.11 22.6625 34.09 22.6625ZM24.5 22.3125H12.25C11.5325 22.3125 10.9375 21.7175 10.9375 21C10.9375 20.2825 11.5325 19.6875 12.25 19.6875H24.5C25.2175 19.6875 25.8125 20.2825 25.8125 21C25.8125 21.7175 25.2175 22.3125 24.5 22.3125Z" fill="#5129F1"/>
</svg>
