<svg width="48" height="48" viewBox="0 0 48 48" fill="none" xmlns="http://www.w3.org/2000/svg">
<rect width="48" height="48" rx="24" fill="#232B38"/>
<path d="M21.6666 15.8333C21.6666 15.2145 21.9125 14.621 22.35 14.1834C22.7876 13.7458 23.3811 13.5 24 13.5C24.6188 13.5 25.2123 13.7458 25.6499 14.1834C26.0875 14.621 26.3333 15.2145 26.3333 15.8333C27.6731 16.4669 28.8153 17.453 29.6374 18.6862C30.4594 19.9193 30.9305 21.3529 31 22.8333V26.3333C31.0878 27.0587 31.3446 27.7532 31.7499 28.3611C32.1552 28.9691 32.6975 29.4733 33.3333 29.8333H14.6666C15.3024 29.4733 15.8447 28.9691 16.25 28.3611C16.6553 27.7532 16.9122 27.0587 17 26.3333V22.8333C17.0694 21.3529 17.5405 19.9193 18.3626 18.6862C19.1847 17.453 20.3268 16.4669 21.6666 15.8333" stroke="#FAFAFA" stroke-width="1.5" stroke-linecap="round" stroke-linejoin="round"/>
<path d="M20.5 29.8333V31C20.5 31.9282 20.8687 32.8185 21.5251 33.4749C22.1815 34.1312 23.0717 34.5 24 34.5C24.9283 34.5 25.8185 34.1312 26.4749 33.4749C27.1313 32.8185 27.5 31.9282 27.5 31V29.8333" stroke="#FAFAFA" stroke-width="1.5" stroke-linecap="round" stroke-linejoin="round"/>
</svg>
