<svg width="50" height="50" viewBox="0 0 50 50" fill="none" xmlns="http://www.w3.org/2000/svg">
<path d="M25.0003 4.16699C13.5003 4.16699 4.16699 13.5003 4.16699 25.0003C4.16699 36.5003 13.5003 45.8337 25.0003 45.8337C36.5003 45.8337 45.8337 36.5003 45.8337 25.0003C45.8337 13.5003 36.5003 4.16699 25.0003 4.16699ZM13.7503 23.3962C14.1045 20.917 15.2087 18.6878 16.9378 16.9378C21.1045 12.792 27.667 12.5628 32.1253 16.1878V14.2087C32.1253 13.3545 32.8337 12.6462 33.6878 12.6462C34.542 12.6462 35.2503 13.3545 35.2503 14.2087V19.7712C35.2503 20.6253 34.542 21.3337 33.6878 21.3337H28.1253C27.2712 21.3337 26.5628 20.6253 26.5628 19.7712C26.5628 18.917 27.2712 18.2087 28.1253 18.2087H29.6878C26.4587 15.9587 22.0003 16.2712 19.1253 19.1462C17.8753 20.3962 17.0837 22.0212 16.8128 23.8337C16.7087 24.6045 16.042 25.167 15.2712 25.167C15.1878 25.167 15.1253 25.167 15.042 25.1462C14.2295 25.042 13.6253 24.2503 13.7503 23.3962ZM33.0628 33.0628C30.8337 35.292 27.917 36.3962 25.0003 36.3962C22.4587 36.3962 19.9378 35.5003 17.8545 33.8128V35.7712C17.8545 36.6253 17.1462 37.3337 16.292 37.3337C15.4378 37.3337 14.7295 36.6253 14.7295 35.7712V30.2087C14.7295 29.3545 15.4378 28.6462 16.292 28.6462H21.8545C22.7087 28.6462 23.417 29.3545 23.417 30.2087C23.417 31.0628 22.7087 31.7712 21.8545 31.7712H20.292C23.5212 34.0212 27.9795 33.7087 30.8545 30.8337C32.1045 29.5837 32.8962 27.9587 33.167 26.1462C33.292 25.292 34.0628 24.6878 34.9378 24.8128C35.792 24.9378 36.3753 25.7295 36.2712 26.5837C35.8962 29.1045 34.792 31.3337 33.0628 33.0628Z" fill="white"/>
</svg>
