<svg width="22" height="23" viewBox="0 0 22 23" fill="none" xmlns="http://www.w3.org/2000/svg">
<path d="M9.46458 4.45725C9.85508 2.84758 12.1449 2.84758 12.5354 4.45725C12.594 4.69907 12.7089 4.92363 12.8707 5.11267C13.0324 5.3017 13.2366 5.44987 13.4664 5.5451C13.6963 5.64033 13.9454 5.67995 14.1935 5.66071C14.4415 5.64148 14.6816 5.56394 14.894 5.43442C16.3084 4.57275 17.9282 6.19158 17.0665 7.60692C16.9372 7.81927 16.8597 8.05914 16.8406 8.30704C16.8214 8.55494 16.8609 8.80387 16.9561 9.0336C17.0512 9.26332 17.1992 9.46736 17.388 9.62913C17.5768 9.7909 17.8012 9.90583 18.0428 9.96458C19.6524 10.3551 19.6524 12.6449 18.0428 13.0354C17.8009 13.094 17.5764 13.2089 17.3873 13.3707C17.1983 13.5324 17.0501 13.7366 16.9549 13.9664C16.8597 14.1963 16.8201 14.4454 16.8393 14.6935C16.8585 14.9415 16.9361 15.1816 17.0656 15.394C17.9273 16.8084 16.3084 18.4282 14.8931 17.5665C14.6807 17.4372 14.4409 17.3597 14.193 17.3406C13.9451 17.3214 13.6961 17.3609 13.4664 17.4561C13.2367 17.5512 13.0326 17.6992 12.8709 17.888C12.7091 18.0768 12.5942 18.3012 12.5354 18.5428C12.1449 20.1524 9.85508 20.1524 9.46458 18.5428C9.40599 18.3009 9.29113 18.0764 9.12935 17.8873C8.96757 17.6983 8.76344 17.5501 8.53357 17.4549C8.3037 17.3597 8.0546 17.3201 7.80653 17.3393C7.55846 17.3585 7.31844 17.4361 7.106 17.5656C5.69158 18.4273 4.07183 16.8084 4.9335 15.3931C5.06284 15.1807 5.14025 14.9409 5.15944 14.693C5.17863 14.4451 5.13906 14.1961 5.04393 13.9664C4.94881 13.7367 4.80082 13.5326 4.612 13.3709C4.42318 13.2091 4.19885 13.0942 3.95725 13.0354C2.34758 12.6449 2.34758 10.3551 3.95725 9.96458C4.19907 9.90599 4.42363 9.79113 4.61267 9.62935C4.8017 9.46757 4.94987 9.26344 5.0451 9.03357C5.14033 8.8037 5.17995 8.5546 5.16071 8.30653C5.14148 8.05846 5.06394 7.81844 4.93442 7.606C4.07275 6.19158 5.69158 4.57183 7.10692 5.4335C8.02358 5.99083 9.21158 5.49767 9.46458 4.45725Z" stroke="#A0AEC0" stroke-width="1.5" stroke-linecap="round" stroke-linejoin="round"/>
<path d="M11 14.25C12.5188 14.25 13.75 13.0188 13.75 11.5C13.75 9.98122 12.5188 8.75 11 8.75C9.48122 8.75 8.25 9.98122 8.25 11.5C8.25 13.0188 9.48122 14.25 11 14.25Z" stroke="#A0AEC0" stroke-width="1.5" stroke-linecap="round" stroke-linejoin="round"/>
</svg>
