<svg width="25" height="24" viewBox="0 0 25 24" fill="none" xmlns="http://www.w3.org/2000/svg">
<path d="M16.69 2H8.31C4.67 2 2.5 4.17 2.5 7.81V16.18C2.5 19.83 4.67 22 8.31 22H16.68C20.32 22 22.49 19.83 22.49 16.19V7.81C22.5 4.17 20.33 2 16.69 2ZM6.97 9.28C6.68 8.99 6.68 8.51 6.97 8.22C8.26 6.93 10.37 6.93 11.67 8.22C11.96 8.51 11.96 8.99 11.67 9.28C11.52 9.43 11.33 9.5 11.14 9.5C10.95 9.5 10.76 9.43 10.61 9.28C9.9 8.57 8.74 8.57 8.03 9.28C7.74 9.58 7.26 9.58 6.97 9.28ZM16.1 18.08H8.9C8.2 18.08 7.63 17.51 7.63 16.8C7.63 14.11 9.82 11.92 12.51 11.92C15.2 11.92 17.39 14.11 17.39 16.8C17.38 17.5 16.8 18.08 16.1 18.08ZM18.03 9.28C17.74 9.57 17.26 9.57 16.97 9.28C16.26 8.57 15.1 8.57 14.39 9.28C14.24 9.43 14.05 9.5 13.86 9.5C13.67 9.5 13.48 9.43 13.33 9.28C13.04 8.99 13.04 8.51 13.33 8.22C14.62 6.93 16.73 6.93 18.03 8.22C18.32 8.52 18.32 8.99 18.03 9.28Z" fill="#FBBF24"/>
</svg>
