<?xml version="1.0" encoding="UTF-8"?>
<svg xmlns="http://www.w3.org/2000/svg" xmlns:xlink="http://www.w3.org/1999/xlink" width="133px" height="50px" viewBox="0 0 132 50" version="1.1">
<defs>
<linearGradient id="linear0" gradientUnits="userSpaceOnUse" x1="1495" y1="231.765" x2="1480.05" y2="417.445" gradientTransform="matrix(0.0882943,0,0,0.0888099,0,0)">
<stop offset="0" style="stop-color:rgb(92.156863%,100%,0%);stop-opacity:1;"/>
<stop offset="1" style="stop-color:rgb(100%,47.843137%,0%);stop-opacity:1;"/>
</linearGradient>
<radialGradient id="radial0" gradientUnits="userSpaceOnUse" cx="0" cy="0" fx="0" fy="0" r="1" gradientTransform="matrix(1.472179,21.833681,-24.671472,1.683009,21.066582,22.0754)">
<stop offset="0.228828" style="stop-color:rgb(100%,32.54902%,92.941176%);stop-opacity:1;"/>
<stop offset="0.466243" style="stop-color:rgb(61.176471%,20%,100%);stop-opacity:1;"/>
<stop offset="0.754874" style="stop-color:rgb(25.490196%,24.705882%,98.823529%);stop-opacity:1;"/>
</radialGradient>
<linearGradient id="linear1" gradientUnits="userSpaceOnUse" x1="370.601" y1="419.944" x2="297.236" y2="319.286" gradientTransform="matrix(0.0882943,0,0,0.0888099,0,0)">
<stop offset="0" style="stop-color:rgb(100%,0%,41.960784%);stop-opacity:1;"/>
<stop offset="1" style="stop-color:rgb(89.411765%,60.392157%,100%);stop-opacity:1;"/>
</linearGradient>
<linearGradient id="linear2" gradientUnits="userSpaceOnUse" x1="48.8172" y1="505.738" x2="3.06408" y2="360.227" gradientTransform="matrix(0.0882943,0,0,0.0888099,0,0)">
<stop offset="0" style="stop-color:rgb(0.392157%,99.607843%,99.215686%);stop-opacity:1;"/>
<stop offset="1" style="stop-color:rgb(5.098039%,60.392157%,100%);stop-opacity:1;"/>
</linearGradient>
<radialGradient id="radial1" gradientUnits="userSpaceOnUse" cx="0" cy="0" fx="0" fy="0" r="1" gradientTransform="matrix(0.000000000000000335,5.505311,-18.249728,0.000000000000001124,19.459184,44.416252)">
<stop offset="0.427083" style="stop-color:rgb(38.431373%,0.784314%,0.784314%);stop-opacity:1;"/>
<stop offset="1" style="stop-color:rgb(100%,47.843137%,0%);stop-opacity:1;"/>
</radialGradient>
<linearGradient id="linear3" gradientUnits="userSpaceOnUse" x1="415.975" y1="135.057" x2="356.495" y2="223.865" gradientTransform="matrix(0.0882943,0,0,0.0888099,0,0)">
<stop offset="0" style="stop-color:rgb(92.156863%,100%,0%);stop-opacity:1;"/>
<stop offset="1" style="stop-color:rgb(100%,47.843137%,0%);stop-opacity:1;"/>
</linearGradient>
<linearGradient id="linear4" gradientUnits="userSpaceOnUse" x1="10.6388" y1="218.376" x2="11.4885" y2="119.55" gradientTransform="matrix(0.0882943,0,0,0.0888099,0,0)">
<stop offset="0" style="stop-color:rgb(92.156863%,100%,0%);stop-opacity:1;"/>
<stop offset="1" style="stop-color:rgb(2.352941%,99.607843%,0.392157%);stop-opacity:1;"/>
</linearGradient>
</defs>
<g id="surface1">
<path style=" stroke:none;fill-rule:nonzero;fill:url(#linear0);" d="M 96.414062 22.277344 L 97.484375 23.925781 L 98.578125 25.535156 L 97.484375 27.148438 L 96.414062 28.792969 L 95.339844 27.148438 L 94.246094 25.535156 L 95.339844 23.925781 Z M 96.414062 22.277344 "/>
<path style=" stroke:none;fill-rule:nonzero;fill:rgb(7.45098%,7.45098%,7.45098%);fill-opacity:1;" d="M 109.25 24.203125 L 116.675781 24.203125 L 116.675781 25.941406 C 116.675781 28.050781 116 29.785156 114.652344 31.140625 C 113.316406 32.511719 111.558594 33.195312 109.375 33.195312 C 107.09375 33.195312 105.230469 32.46875 103.78125 31.015625 C 102.335938 29.535156 101.613281 27.710938 101.613281 25.542969 C 101.613281 23.378906 102.335938 21.554688 103.78125 20.074219 C 105.214844 18.589844 107.023438 17.851562 109.207031 17.851562 C 110.554688 17.851562 111.792969 18.160156 112.921875 18.773438 C 114.058594 19.375 114.964844 20.207031 115.632812 21.269531 L 112.085938 23.300781 C 111.5 22.40625 110.570312 21.960938 109.289062 21.960938 C 108.246094 21.960938 107.398438 22.292969 106.746094 22.964844 C 106.105469 23.621094 105.785156 24.488281 105.785156 25.566406 C 105.785156 26.585938 106.085938 27.464844 106.683594 28.207031 C 107.292969 28.945312 108.21875 29.316406 109.457031 29.316406 C 110.902344 29.316406 111.871094 28.800781 112.355469 27.765625 L 109.25 27.765625 Z M 109.25 24.203125 "/>
<path style=" stroke:none;fill-rule:nonzero;fill:rgb(7.45098%,7.45098%,7.45098%);fill-opacity:1;" d="M 127.367188 17.851562 L 132 17.851562 L 127.054688 27.363281 L 127.054688 33.195312 L 122.882812 33.195312 L 122.882812 27.363281 L 117.9375 17.851562 L 122.570312 17.851562 L 124.96875 23.242188 Z M 127.367188 17.851562 "/>
<path style=" stroke:none;fill-rule:nonzero;fill:rgb(7.45098%,7.45098%,7.45098%);fill-opacity:1;" d="M 77.589844 17.851562 L 83.84375 17.851562 C 85.914062 17.851562 87.652344 18.589844 89.0625 20.066406 C 90.472656 21.539062 91.175781 23.359375 91.175781 25.523438 C 91.175781 27.699219 90.472656 29.527344 89.0625 31.003906 C 87.667969 32.464844 85.929688 33.195312 83.84375 33.195312 L 77.589844 33.195312 Z M 81.949219 28.941406 L 83.84375 28.941406 C 84.71875 28.941406 85.4375 28.628906 86 28 C 86.574219 27.355469 86.863281 26.53125 86.863281 25.523438 C 86.863281 24.515625 86.574219 23.695312 86 23.066406 C 85.4375 22.425781 84.71875 22.101562 83.84375 22.101562 L 81.949219 22.101562 Z M 81.949219 28.941406 "/>
<path style=" stroke:none;fill-rule:nonzero;fill:rgb(7.45098%,7.45098%,7.45098%);fill-opacity:1;" d="M 72.242188 30.992188 C 70.753906 32.460938 68.921875 33.195312 66.753906 33.195312 C 64.582031 33.195312 62.742188 32.460938 61.242188 30.992188 C 59.75 29.5 59.007812 27.675781 59.007812 25.523438 C 59.007812 23.355469 59.75 21.539062 61.242188 20.074219 C 62.730469 18.589844 64.566406 17.851562 66.753906 17.851562 C 68.9375 17.851562 70.765625 18.589844 72.242188 20.074219 C 73.746094 21.539062 74.496094 23.355469 74.496094 25.523438 C 74.496094 27.675781 73.746094 29.5 72.242188 30.992188 Z M 64.183594 28.082031 C 64.867188 28.75 65.722656 29.085938 66.753906 29.085938 C 67.78125 29.085938 68.632812 28.75 69.300781 28.082031 C 69.980469 27.394531 70.320312 26.542969 70.320312 25.523438 C 70.320312 24.503906 69.980469 23.65625 69.300781 22.988281 C 68.632812 22.300781 67.78125 21.960938 66.753906 21.960938 C 65.722656 21.960938 64.867188 22.300781 64.183594 22.988281 C 63.515625 23.65625 63.183594 24.503906 63.183594 25.523438 C 63.183594 26.527344 63.515625 27.382812 64.183594 28.082031 Z M 64.183594 28.082031 "/>
<path style=" stroke:none;fill-rule:nonzero;fill:rgb(7.45098%,7.45098%,7.45098%);fill-opacity:1;" d="M 51.699219 24.863281 L 51.699219 17.851562 L 55.90625 17.851562 L 55.90625 33.195312 L 52.542969 33.195312 L 47.914062 26.179688 L 47.914062 33.195312 L 43.707031 33.195312 L 43.707031 17.851562 L 47.070312 17.851562 Z M 51.699219 24.863281 "/>
<path style=" stroke:none;fill-rule:nonzero;fill:rgb(7.45098%,7.45098%,7.45098%);fill-opacity:1;" d="M 94.277344 27.191406 L 94.277344 33.195312 L 98.519531 33.195312 L 98.519531 27.1875 L 98.050781 27.847656 L 96.398438 30.257812 L 94.746094 27.847656 Z M 94.277344 27.191406 "/>
<path style=" stroke:none;fill-rule:nonzero;fill:rgb(7.45098%,7.45098%,7.45098%);fill-opacity:1;" d="M 94.277344 23.78125 L 94.746094 23.125 L 96.398438 20.714844 L 98.050781 23.125 L 98.519531 23.785156 L 98.519531 17.851562 L 94.277344 17.851562 Z M 94.277344 23.78125 "/>
<path style=" stroke:none;fill-rule:evenodd;fill:url(#radial0);" d="M 26.824219 11.390625 L 21.671875 8.375 L 22.070312 8.109375 L 21.722656 7.738281 C 21.199219 7.4375 19.71875 7.292969 19.511719 7.199219 C 19.492188 7.191406 19.476562 7.183594 19.460938 7.175781 C 19.445312 7.183594 19.429688 7.191406 19.410156 7.199219 C 19.203125 7.292969 18.929688 7.449219 18.40625 7.75 L 12.097656 11.390625 L 5.8125 15.152344 C 5.300781 15.457031 5.035156 15.617188 4.855469 15.75 C 4.839844 15.761719 4.824219 15.773438 4.8125 15.78125 C 4.8125 15.796875 4.808594 15.816406 4.808594 15.835938 C 4.785156 16.058594 4.78125 16.371094 4.773438 16.96875 L 4.714844 24.40625 L 4.773438 31.847656 C 4.78125 32.445312 4.785156 32.757812 4.808594 32.980469 C 4.808594 33 4.8125 33.019531 4.8125 33.035156 C 4.824219 33.042969 4.839844 33.054688 4.855469 33.066406 C 5.035156 33.199219 5.300781 33.359375 5.8125 33.664062 L 12.097656 37.425781 L 18.40625 41.066406 C 18.929688 41.367188 19.203125 41.523438 19.410156 41.617188 C 19.429688 41.625 19.445312 41.632812 19.460938 41.640625 C 19.476562 41.632812 19.492188 41.625 19.511719 41.617188 C 19.71875 41.523438 19.992188 41.367188 20.515625 41.066406 L 26.824219 37.425781 L 33.109375 33.664062 C 33.621094 33.359375 33.886719 33.199219 34.066406 33.066406 C 34.082031 33.054688 34.097656 33.042969 34.109375 33.035156 C 34.109375 33.019531 34.113281 33 34.113281 32.980469 C 34.136719 32.757812 34.144531 32.445312 34.148438 31.847656 L 34.207031 24.40625 L 34.148438 16.96875 C 34.144531 16.371094 34.136719 16.058594 34.113281 15.835938 C 34.113281 15.816406 34.109375 15.796875 34.109375 15.78125 C 34.097656 15.773438 34.082031 15.761719 34.066406 15.75 C 33.886719 15.617188 33.621094 15.457031 33.109375 15.152344 Z M 27.796875 9.714844 L 21.472656 6.070312 C 20.492188 5.5 20 5.21875 19.460938 5.21875 C 18.921875 5.21875 18.429688 5.5 17.449219 6.070312 L 11.125 9.714844 L 4.824219 13.484375 C 3.867188 14.058594 3.390625 14.34375 3.125 14.808594 C 2.859375 15.269531 2.855469 15.832031 2.847656 16.953125 L 2.789062 24.40625 L 2.847656 31.863281 C 2.855469 32.984375 2.859375 33.546875 3.125 34.007812 C 3.390625 34.472656 3.867188 34.757812 4.824219 35.332031 L 11.125 39.101562 L 17.449219 42.746094 C 18.429688 43.316406 18.921875 43.597656 19.460938 43.597656 C 20 43.597656 20.492188 43.316406 21.472656 42.746094 L 27.796875 39.101562 L 34.097656 35.332031 C 35.054688 34.757812 35.53125 34.472656 35.796875 34.007812 C 36.0625 33.546875 36.066406 32.984375 36.074219 31.863281 L 36.132812 24.40625 L 36.074219 16.953125 C 36.066406 15.832031 36.0625 15.269531 35.796875 14.808594 C 35.53125 14.34375 35.054688 14.058594 34.097656 13.484375 Z M 27.796875 9.714844 "/>
<path style=" stroke:none;fill-rule:nonzero;fill:rgb(100%,100%,100%);fill-opacity:1;" d="M 22.96875 11.867188 C 23.984375 12.824219 24.558594 14.203125 25.003906 15.816406 C 25.792969 18.683594 25.441406 23.84375 25.441406 23.84375 C 25.238281 25.867188 25.027344 26.910156 24.539062 28.886719 C 23.800781 31.882812 21.40625 35.238281 21.582031 34.925781 C 25.882812 27.421875 12.140625 19.980469 11.558594 15.453125 L 12.457031 15.246094 C 12.457031 15.246094 14.117188 15.015625 14.144531 15.011719 C 14.171875 15.007812 16.617188 14.59375 18.648438 13.917969 C 20.683594 13.246094 22.96875 11.867188 22.96875 11.867188 Z M 22.96875 11.867188 "/>
<path style=" stroke:none;fill-rule:nonzero;fill:url(#linear1);" d="M 36.730469 33.8125 C 36.183594 33.25 35.535156 32.804688 34.820312 32.5 C 34.101562 32.195312 33.335938 32.039062 32.5625 32.039062 C 31.789062 32.039062 31.019531 32.195312 30.304688 32.5 C 29.589844 32.804688 28.941406 33.25 28.390625 33.8125 L 32.5625 38.089844 Z M 36.730469 33.8125 "/>
<path style=" stroke:none;fill-rule:nonzero;fill:url(#linear2);" d="M 4.308594 30.824219 L 8.554688 37.941406 L 0.0664062 37.941406 Z M 4.308594 30.824219 "/>
<path style=" stroke:none;fill-rule:nonzero;fill:url(#radial1);" d="M 37.707031 44.417969 C 37.707031 47.457031 29.539062 49.921875 19.460938 49.921875 C 9.378906 49.921875 1.210938 47.457031 1.210938 44.417969 C 1.210938 41.375 9.378906 38.910156 19.460938 38.910156 C 29.539062 38.910156 37.707031 41.375 37.707031 44.417969 Z M 37.707031 44.417969 "/>
<path style=" stroke:none;fill-rule:nonzero;fill:url(#linear3);" d="M 33.074219 10.113281 L 34.882812 12.78125 L 36.726562 15.394531 L 34.882812 18.007812 L 33.074219 20.675781 L 31.269531 18.007812 L 29.421875 15.394531 L 31.269531 12.78125 Z M 33.074219 10.113281 "/>
<path style=" stroke:none;fill-rule:nonzero;fill:url(#linear4);" d="M 3.234375 11.886719 C 5.160156 11.886719 6.71875 13.457031 6.71875 15.390625 C 6.71875 17.324219 5.160156 18.890625 3.234375 18.890625 L 1.003906 18.890625 L 1.003906 11.886719 Z M 3.234375 11.886719 "/>
<path style=" stroke:none;fill-rule:nonzero;fill:rgb(11.764706%,0.784314%,38.431373%);fill-opacity:1;" d="M 6.820312 21.574219 L 11.554688 15.476562 C 11.667969 15.90625 13.085938 17.824219 16.40625 23.460938 C 20.574219 30.53125 20.105469 33.367188 19.628906 34.035156 C 18.246094 35.964844 16.863281 34.457031 16.703125 34.035156 C 17.300781 37.359375 20.089844 36.964844 21.4375 35.226562 C 25.789062 29.597656 26.0625 21.148438 24.976562 15.765625 C 25.738281 17.402344 27.59375 21.265625 27.800781 22.09375 C 28.007812 22.921875 28.625 22.734375 28.910156 22.535156 C 29.632812 22.128906 31.144531 21.300781 31.378906 21.242188 C 31.613281 21.183594 32.339844 21.933594 32.667969 22.316406 C 32.707031 21.871094 31.710938 20.984375 31.378906 20.578125 C 31.113281 20.25 31.21875 19.726562 31.304688 19.503906 L 32.558594 20.171875 L 33.371094 20.984375 L 33.261719 19.984375 L 32.929688 19.136719 C 32.839844 18.367188 33.1875 18.273438 33.371094 18.320312 L 34.511719 19.765625 L 34.511719 19.023438 C 34.101562 17.839844 34.585938 17.59375 34.882812 17.621094 L 35.324219 18.359375 L 35.324219 18.0625 C 35.175781 17.351562 35.679688 16.84375 35.988281 16.953125 L 35.988281 18.800781 L 35.730469 19.394531 L 35.65625 19.984375 L 33.921875 23.460938 L 32.042969 25.273438 C 32.425781 25.359375 32.890625 24.839844 33.074219 24.570312 C 33.1875 25.136719 33.363281 26.707031 33.1875 28.453125 C 33.007812 30.195312 32.351562 29.300781 32.042969 28.636719 C 31.394531 27.691406 31.058594 25.085938 30.972656 23.902344 C 30.355469 25.765625 31.429688 28.476562 32.042969 29.597656 C 30.953125 29.507812 28.367188 30.667969 27.210938 31.261719 C 26.679688 26.441406 26.253906 23.140625 26.105469 22.09375 C 26.042969 22.09375 25.53125 24.371094 26.695312 32.222656 C 27.703125 39.027344 31.636719 43.832031 31.636719 43.832031 C 20.929688 48.800781 10.1875 45.902344 6.15625 43.832031 C 15.375 34.253906 12.609375 24.902344 12.09375 24.644531 C 12.757812 26.898438 12.105469 30.769531 11.796875 32.222656 L 6.820312 26.898438 C 4.578125 24.859375 5.886719 22.5 6.820312 21.574219 Z M 6.820312 21.574219 "/>
<path style=" stroke:none;fill-rule:nonzero;fill:rgb(23.137255%,4.313725%,83.137255%);fill-opacity:1;" d="M 11.554688 15.476562 L 6.820312 21.527344 C 6.820312 21.527344 4.890625 23.503906 5.832031 25.566406 Z M 11.554688 15.476562 "/>
<path style=" stroke:none;fill-rule:nonzero;fill:rgb(23.137255%,4.313725%,83.137255%);fill-opacity:1;" d="M 6.15625 43.832031 C 10.1875 45.902344 20.929688 48.800781 31.636719 43.832031 C 30.671875 42.574219 27.496094 38.011719 26.695312 32.222656 C 26.441406 30.382812 25.898438 22.15625 26.105469 22.09375 C 26.210938 22.847656 26.464844 24.777344 26.796875 27.601562 C 27.742188 27.503906 29.871094 27.03125 30.835938 25.9375 C 30.75 25.226562 30.769531 24.519531 30.972656 23.902344 C 31.007812 24.367188 31.078125 25.042969 31.191406 25.753906 L 32.667969 23.902344 L 33.519531 22.316406 L 35.105469 20.171875 L 35.65625 19.023438 L 35.546875 18.730469 L 34.882812 17.621094 C 34.585938 17.59375 34.101562 17.839844 34.511719 19.023438 L 34.511719 19.765625 L 33.371094 18.320312 C 33.1875 18.273438 32.839844 18.367188 32.929688 19.136719 L 33.261719 19.984375 L 33.371094 20.984375 L 32.558594 20.171875 L 31.304688 19.503906 C 31.21875 19.726562 31.113281 20.25 31.378906 20.578125 C 31.710938 20.984375 32.707031 21.871094 32.667969 22.316406 C 32.339844 21.933594 31.613281 21.183594 31.378906 21.242188 C 31.144531 21.300781 29.632812 22.128906 28.910156 22.535156 C 28.625 22.734375 28.007812 22.921875 27.800781 22.09375 C 27.59375 21.265625 25.726562 17.367188 24.964844 15.730469 C 26.105469 21.242188 25.160156 30.605469 21.175781 35.570312 C 16.21875 42.164062 8.957031 43.804688 6.15625 43.832031 Z M 6.15625 43.832031 "/>
<path style=" stroke:none;fill-rule:nonzero;fill:rgb(0.392157%,99.607843%,99.215686%);fill-opacity:1;" d="M 16.710938 34.035156 C 16.988281 35.71875 17.875 36.425781 18.824219 36.527344 C 19.769531 36.628906 20.773438 36.128906 21.292969 35.410156 C 25.960938 28.882812 15.390625 20.984375 11.554688 15.476562 C 11.667969 15.90625 13.09375 17.886719 16.414062 23.460938 C 19.734375 29.035156 20.269531 32.460938 19.722656 33.621094 C 18.785156 35.617188 17.238281 35.019531 16.710938 34.035156 Z M 16.710938 34.035156 "/>
<path style=" stroke:none;fill-rule:nonzero;fill:rgb(23.137255%,4.313725%,83.137255%);fill-opacity:1;" d="M 13.136719 15.199219 L 8.230469 16.21875 C 10.691406 14.703125 12.136719 12.6875 12.554688 11.867188 C 15.824219 11.542969 20.253906 9.203125 22.058594 8.074219 C 24.175781 8.164062 26.8125 7.738281 27.863281 7.515625 C 22.761719 13.941406 15.148438 14.800781 13.136719 15.199219 Z M 13.136719 15.199219 "/>
<path style=" stroke:none;fill-rule:nonzero;fill:rgb(23.137255%,4.313725%,83.137255%);fill-opacity:1;" d="M 21.707031 7.703125 C 18.21875 9.699219 14.488281 10.652344 12.980469 10.902344 C 13.75 9.933594 14.230469 8.859375 14.378906 8.425781 C 14.238281 8.8125 13.496094 9.441406 13.136719 9.710938 C 13.824219 4.503906 12.957031 2.953125 12.4375 2.832031 C 12.65625 3.128906 12.769531 3.207031 12.667969 3.632812 C 12.070312 4.683594 11.425781 5.074219 11.191406 5.769531 C 10.722656 1.957031 12.535156 0.453125 13.683594 0.0390625 C 15.335938 -0.347656 17.515625 2.136719 18.398438 3.425781 L 16.683594 3.015625 C 19.425781 4.503906 21.175781 6.761719 21.707031 7.703125 Z M 21.707031 7.703125 "/>
<path style=" stroke:none;fill-rule:nonzero;fill:rgb(11.764706%,0.784314%,38.431373%);fill-opacity:1;" d="M 11.191406 5.773438 C 11.425781 5.078125 11.933594 4.941406 12.671875 3.617188 C 12.785156 3.410156 12.746094 3.160156 12.433594 2.828125 C 12.953125 2.949219 13.824219 4.507812 13.136719 9.710938 C 13.496094 9.441406 14.238281 8.816406 14.378906 8.425781 C 14.382812 8.421875 14.382812 8.417969 14.386719 8.410156 C 14.382812 8.417969 14.382812 8.421875 14.378906 8.425781 C 14.230469 8.859375 13.75 9.933594 12.984375 10.902344 C 13.777344 10.769531 15.230469 10.429688 16.917969 9.851562 C 18.039062 5.238281 14.40625 1.921875 12.445312 0.839844 C 11.59375 1.6875 10.863281 3.242188 11.191406 5.773438 Z M 11.191406 5.773438 "/>
<path style=" stroke:none;fill-rule:nonzero;fill:rgb(11.764706%,0.784314%,38.431373%);fill-opacity:1;" d="M 8.230469 16.21875 L 14.109375 15.019531 L 16.683594 10.761719 C 15.28125 11.3125 13.828125 11.742188 12.554688 11.871094 C 12.136719 12.6875 10.691406 14.703125 8.230469 16.21875 Z M 8.230469 16.21875 "/>
</g>
</svg>
