<?xml version="1.0" encoding="UTF-8"?>
<svg xmlns="http://www.w3.org/2000/svg" xmlns:xlink="http://www.w3.org/1999/xlink" width="149px" height="56px" viewBox="0 0 148 56" version="1.1">
<defs>
<linearGradient id="linear0" gradientUnits="userSpaceOnUse" x1="1494.27" y1="231.765" x2="1479.32" y2="417.445" gradientTransform="matrix(0.0989967,0,0,0.0994671,0,0)">
<stop offset="0" style="stop-color:rgb(92.156863%,100%,0%);stop-opacity:1;"/>
<stop offset="1" style="stop-color:rgb(100%,47.843137%,0%);stop-opacity:1;"/>
</linearGradient>
<radialGradient id="radial0" gradientUnits="userSpaceOnUse" cx="0" cy="0" fx="0" fy="0" r="1" gradientTransform="matrix(1.650625,24.453722,-27.661954,1.88497,23.54774,24.724448)">
<stop offset="0.228828" style="stop-color:rgb(100%,32.54902%,92.941176%);stop-opacity:1;"/>
<stop offset="0.466243" style="stop-color:rgb(61.176471%,20%,100%);stop-opacity:1;"/>
<stop offset="0.754874" style="stop-color:rgb(25.490196%,24.705882%,98.823529%);stop-opacity:1;"/>
</radialGradient>
<linearGradient id="linear1" gradientUnits="userSpaceOnUse" x1="369.87" y1="419.944" x2="296.505" y2="319.286" gradientTransform="matrix(0.0989967,0,0,0.0994671,0,0)">
<stop offset="0" style="stop-color:rgb(100%,0%,41.960784%);stop-opacity:1;"/>
<stop offset="1" style="stop-color:rgb(89.411765%,60.392157%,100%);stop-opacity:1;"/>
</linearGradient>
<linearGradient id="linear2" gradientUnits="userSpaceOnUse" x1="48.0862" y1="505.738" x2="2.33312" y2="360.227" gradientTransform="matrix(0.0989967,0,0,0.0994671,0,0)">
<stop offset="0" style="stop-color:rgb(0.392157%,99.607843%,99.215686%);stop-opacity:1;"/>
<stop offset="1" style="stop-color:rgb(5.098039%,60.392157%,100%);stop-opacity:1;"/>
</linearGradient>
<radialGradient id="radial1" gradientUnits="userSpaceOnUse" cx="0" cy="0" fx="0" fy="0" r="1" gradientTransform="matrix(0.000000000000000376,6.165948,-20.461817,0.000000000000001259,21.745506,49.746202)">
<stop offset="0.427083" style="stop-color:rgb(38.431373%,0.784314%,0.784314%);stop-opacity:1;"/>
<stop offset="1" style="stop-color:rgb(100%,47.843137%,0%);stop-opacity:1;"/>
</radialGradient>
<linearGradient id="linear3" gradientUnits="userSpaceOnUse" x1="415.244" y1="135.057" x2="355.764" y2="223.865" gradientTransform="matrix(0.0989967,0,0,0.0994671,0,0)">
<stop offset="0" style="stop-color:rgb(92.156863%,100%,0%);stop-opacity:1;"/>
<stop offset="1" style="stop-color:rgb(100%,47.843137%,0%);stop-opacity:1;"/>
</linearGradient>
<linearGradient id="linear4" gradientUnits="userSpaceOnUse" x1="9.90785" y1="218.376" x2="10.7575" y2="119.55" gradientTransform="matrix(0.0989967,0,0,0.0994671,0,0)">
<stop offset="0" style="stop-color:rgb(92.156863%,100%,0%);stop-opacity:1;"/>
<stop offset="1" style="stop-color:rgb(2.352941%,99.607843%,0.392157%);stop-opacity:1;"/>
</linearGradient>
</defs>
<g id="surface1">
<path style=" stroke:none;fill-rule:nonzero;fill:url(#linear0);" d="M 108.027344 24.953125 L 109.230469 26.792969 L 110.457031 28.601562 L 109.230469 30.40625 L 108.027344 32.25 L 106.824219 30.40625 L 105.597656 28.601562 L 106.824219 26.792969 Z M 108.027344 24.953125 "/>
<path style=" stroke:none;fill-rule:nonzero;fill:rgb(100%,100%,100%);fill-opacity:1;" d="M 122.417969 27.105469 L 130.746094 27.105469 L 130.746094 29.054688 C 130.746094 31.417969 129.988281 33.359375 128.476562 34.878906 C 126.980469 36.410156 125.007812 37.179688 122.558594 37.179688 C 120 37.179688 117.910156 36.363281 116.289062 34.738281 C 114.667969 33.078125 113.855469 31.035156 113.855469 28.609375 C 113.855469 26.183594 114.667969 24.140625 116.289062 22.480469 C 117.894531 20.824219 119.921875 19.992188 122.371094 19.992188 C 123.882812 19.992188 125.273438 20.335938 126.535156 21.027344 C 127.8125 21.699219 128.828125 22.628906 129.574219 23.820312 L 125.601562 26.097656 C 124.945312 25.09375 123.898438 24.59375 122.464844 24.59375 C 121.296875 24.59375 120.34375 24.96875 119.613281 25.722656 C 118.894531 26.457031 118.535156 27.425781 118.535156 28.632812 C 118.535156 29.773438 118.871094 30.761719 119.542969 31.589844 C 120.226562 32.421875 121.265625 32.835938 122.652344 32.835938 C 124.273438 32.835938 125.359375 32.253906 125.902344 31.097656 L 122.417969 31.097656 Z M 122.417969 27.105469 "/>
<path style=" stroke:none;fill-rule:nonzero;fill:rgb(100%,100%,100%);fill-opacity:1;" d="M 142.734375 19.992188 L 147.925781 19.992188 L 142.382812 30.648438 L 142.382812 37.179688 L 137.707031 37.179688 L 137.707031 30.648438 L 132.160156 19.992188 L 137.355469 19.992188 L 140.042969 26.03125 Z M 142.734375 19.992188 "/>
<path style=" stroke:none;fill-rule:nonzero;fill:rgb(100%,100%,100%);fill-opacity:1;" d="M 86.921875 19.992188 L 93.933594 19.992188 C 96.253906 19.992188 98.207031 20.820312 99.785156 22.472656 C 101.363281 24.125 102.152344 26.164062 102.152344 28.585938 C 102.152344 31.023438 101.363281 33.070312 99.785156 34.722656 C 98.222656 36.359375 96.269531 37.179688 93.933594 37.179688 L 86.921875 37.179688 Z M 91.808594 32.414062 L 93.933594 32.414062 C 94.917969 32.414062 95.722656 32.0625 96.351562 31.359375 C 96.996094 30.640625 97.320312 29.714844 97.320312 28.585938 C 97.320312 27.457031 96.996094 26.539062 96.351562 25.835938 C 95.722656 25.117188 94.917969 24.753906 93.933594 24.753906 L 91.808594 24.753906 Z M 91.808594 32.414062 "/>
<path style=" stroke:none;fill-rule:nonzero;fill:rgb(100%,100%,100%);fill-opacity:1;" d="M 80.925781 34.714844 C 79.257812 36.355469 77.207031 37.179688 74.769531 37.179688 C 72.335938 37.179688 70.277344 36.355469 68.589844 34.714844 C 66.921875 33.039062 66.085938 30.996094 66.085938 28.585938 C 66.085938 26.160156 66.921875 24.125 68.589844 22.480469 C 70.261719 20.824219 72.320312 19.992188 74.769531 19.992188 C 77.222656 19.992188 79.273438 20.824219 80.925781 22.480469 C 82.613281 24.125 83.457031 26.160156 83.457031 28.585938 C 83.457031 30.996094 82.613281 33.039062 80.925781 34.714844 Z M 71.890625 31.449219 C 72.65625 32.199219 73.617188 32.578125 74.769531 32.578125 C 75.925781 32.578125 76.878906 32.199219 77.625 31.449219 C 78.390625 30.683594 78.773438 29.726562 78.773438 28.585938 C 78.773438 27.441406 78.390625 26.496094 77.625 25.746094 C 76.878906 24.976562 75.925781 24.59375 74.769531 24.59375 C 73.617188 24.59375 72.65625 24.976562 71.890625 25.746094 C 71.140625 26.496094 70.769531 27.441406 70.769531 28.585938 C 70.769531 29.710938 71.140625 30.667969 71.890625 31.449219 Z M 71.890625 31.449219 "/>
<path style=" stroke:none;fill-rule:nonzero;fill:rgb(100%,100%,100%);fill-opacity:1;" d="M 57.894531 27.847656 L 57.894531 19.992188 L 62.613281 19.992188 L 62.613281 37.179688 L 58.839844 37.179688 L 53.648438 29.320312 L 53.648438 37.179688 L 48.929688 37.179688 L 48.929688 19.992188 L 52.707031 19.992188 Z M 57.894531 27.847656 "/>
<path style=" stroke:none;fill-rule:nonzero;fill:rgb(100%,100%,100%);fill-opacity:1;" d="M 105.632812 30.457031 L 105.632812 37.179688 L 110.390625 37.179688 L 110.390625 30.449219 L 109.863281 31.1875 L 108.011719 33.886719 L 106.15625 31.1875 Z M 105.632812 30.457031 "/>
<path style=" stroke:none;fill-rule:nonzero;fill:rgb(100%,100%,100%);fill-opacity:1;" d="M 105.632812 26.632812 L 106.15625 25.898438 L 108.011719 23.199219 L 109.863281 25.898438 L 110.390625 26.640625 L 110.390625 19.992188 L 105.632812 19.992188 Z M 105.632812 26.632812 "/>
<path style=" stroke:none;fill-rule:evenodd;fill:url(#radial0);" d="M 30.003906 12.757812 L 24.226562 9.378906 L 24.671875 9.082031 L 24.28125 8.667969 C 23.695312 8.328125 22.035156 8.167969 21.804688 8.0625 C 21.78125 8.050781 21.761719 8.042969 21.746094 8.039062 C 21.730469 8.042969 21.714844 8.050781 21.691406 8.0625 C 21.460938 8.167969 21.152344 8.339844 20.566406 8.679688 L 13.492188 12.757812 L 6.441406 16.96875 C 5.871094 17.3125 5.574219 17.492188 5.371094 17.640625 C 5.355469 17.652344 5.335938 17.664062 5.324219 17.675781 C 5.320312 17.691406 5.320312 17.710938 5.316406 17.734375 C 5.292969 17.984375 5.285156 18.335938 5.28125 19.003906 L 5.214844 27.335938 L 5.28125 35.671875 C 5.285156 36.339844 5.292969 36.6875 5.316406 36.9375 C 5.320312 36.960938 5.320312 36.980469 5.324219 37 C 5.335938 37.007812 5.355469 37.019531 5.371094 37.035156 C 5.574219 37.183594 5.871094 37.363281 6.441406 37.707031 L 13.492188 41.917969 L 20.566406 45.992188 C 21.152344 46.332031 21.460938 46.507812 21.691406 46.613281 C 21.714844 46.621094 21.730469 46.628906 21.746094 46.636719 C 21.761719 46.628906 21.78125 46.621094 21.804688 46.613281 C 22.035156 46.507812 22.34375 46.332031 22.929688 45.992188 L 30.003906 41.917969 L 37.050781 37.707031 C 37.625 37.363281 37.921875 37.183594 38.121094 37.035156 C 38.140625 37.019531 38.15625 37.007812 38.171875 37 C 38.171875 36.980469 38.175781 36.960938 38.175781 36.9375 C 38.203125 36.6875 38.207031 36.339844 38.214844 35.671875 L 38.277344 27.335938 L 38.214844 19.003906 C 38.207031 18.335938 38.203125 17.984375 38.175781 17.734375 C 38.175781 17.710938 38.171875 17.691406 38.171875 17.675781 C 38.15625 17.664062 38.140625 17.652344 38.121094 17.640625 C 37.921875 17.492188 37.625 17.3125 37.050781 16.96875 Z M 31.09375 10.882812 L 24.003906 6.796875 C 22.902344 6.160156 22.351562 5.84375 21.746094 5.84375 C 21.144531 5.84375 20.59375 6.160156 19.488281 6.796875 L 12.402344 10.882812 L 5.339844 15.101562 C 4.265625 15.746094 3.726562 16.066406 3.433594 16.585938 C 3.136719 17.101562 3.128906 17.730469 3.121094 18.988281 L 3.054688 27.335938 L 3.121094 35.6875 C 3.128906 36.941406 3.136719 37.570312 3.433594 38.089844 C 3.726562 38.609375 4.265625 38.929688 5.339844 39.570312 L 12.402344 43.792969 L 19.488281 47.878906 C 20.59375 48.511719 21.144531 48.828125 21.746094 48.828125 C 22.351562 48.828125 22.902344 48.511719 24.003906 47.878906 L 31.09375 43.792969 L 38.15625 39.570312 C 39.230469 38.929688 39.765625 38.609375 40.0625 38.089844 C 40.359375 37.570312 40.363281 36.941406 40.375 35.6875 L 40.441406 27.335938 L 40.375 18.988281 C 40.363281 17.730469 40.359375 17.101562 40.0625 16.585938 C 39.765625 16.066406 39.230469 15.746094 38.15625 15.101562 Z M 31.09375 10.882812 "/>
<path style=" stroke:none;fill-rule:nonzero;fill:rgb(100%,100%,100%);fill-opacity:1;" d="M 25.683594 13.289062 C 26.816406 14.363281 27.464844 15.910156 27.960938 17.714844 C 28.847656 20.925781 28.453125 26.703125 28.453125 26.703125 C 28.222656 28.96875 27.988281 30.140625 27.441406 32.351562 C 26.613281 35.710938 23.925781 39.46875 24.128906 39.117188 C 28.945312 30.710938 13.613281 22.378906 12.886719 17.308594 L 13.894531 17.074219 C 13.894531 17.074219 15.757812 16.816406 15.785156 16.8125 C 15.816406 16.808594 18.558594 16.34375 20.835938 15.589844 C 23.117188 14.835938 25.683594 13.289062 25.683594 13.289062 Z M 25.683594 13.289062 "/>
<path style=" stroke:none;fill-rule:nonzero;fill:url(#linear1);" d="M 41.113281 37.871094 C 40.496094 37.242188 39.769531 36.742188 38.964844 36.402344 C 38.164062 36.058594 37.304688 35.886719 36.4375 35.886719 C 35.566406 35.886719 34.707031 36.058594 33.90625 36.402344 C 33.105469 36.742188 32.375 37.242188 31.761719 37.871094 L 36.4375 42.664062 Z M 41.113281 37.871094 "/>
<path style=" stroke:none;fill-rule:nonzero;fill:url(#linear2);" d="M 4.761719 34.523438 L 9.519531 42.496094 L 0 42.496094 Z M 4.761719 34.523438 "/>
<path style=" stroke:none;fill-rule:nonzero;fill:url(#radial1);" d="M 42.207031 49.746094 C 42.207031 53.152344 33.046875 55.914062 21.746094 55.914062 C 10.445312 55.914062 1.285156 53.152344 1.285156 49.746094 C 1.285156 46.339844 10.445312 43.582031 21.746094 43.582031 C 33.046875 43.582031 42.207031 46.339844 42.207031 49.746094 Z M 42.207031 49.746094 "/>
<path style=" stroke:none;fill-rule:nonzero;fill:url(#linear3);" d="M 37.011719 11.328125 L 39.039062 14.3125 L 41.109375 17.242188 L 39.039062 20.167969 L 37.011719 23.15625 L 34.984375 20.167969 L 32.917969 17.242188 L 34.984375 14.3125 Z M 37.011719 11.328125 "/>
<path style=" stroke:none;fill-rule:nonzero;fill:url(#linear4);" d="M 3.554688 13.3125 C 5.710938 13.3125 7.460938 15.070312 7.460938 17.234375 C 7.460938 19.402344 5.710938 21.15625 3.554688 21.15625 L 1.054688 21.15625 L 1.054688 13.3125 Z M 3.554688 13.3125 "/>
<path style=" stroke:none;fill-rule:nonzero;fill:rgb(11.764706%,0.784314%,38.431373%);fill-opacity:1;" d="M 7.574219 24.164062 L 12.886719 17.335938 C 13.007812 17.816406 14.597656 19.964844 18.324219 26.277344 C 22.996094 34.195312 22.472656 37.371094 21.9375 38.117188 C 20.386719 40.28125 18.832031 38.59375 18.65625 38.117188 C 19.324219 41.839844 22.453125 41.398438 23.960938 39.453125 C 28.84375 33.148438 29.152344 23.683594 27.933594 17.65625 C 28.789062 19.492188 30.867188 23.816406 31.101562 24.742188 C 31.332031 25.671875 32.023438 25.460938 32.339844 25.242188 C 33.152344 24.785156 34.847656 23.859375 35.109375 23.792969 C 35.375 23.726562 36.183594 24.566406 36.558594 24.992188 C 36.597656 24.496094 35.484375 23.5 35.109375 23.046875 C 34.8125 22.683594 34.929688 22.09375 35.027344 21.84375 L 36.433594 22.589844 L 37.34375 23.5 L 37.21875 22.382812 L 36.847656 21.429688 C 36.746094 20.570312 37.136719 20.464844 37.34375 20.519531 L 38.625 22.136719 L 38.625 21.308594 C 38.160156 19.980469 38.707031 19.707031 39.039062 19.734375 L 39.535156 20.5625 L 39.535156 20.230469 C 39.367188 19.4375 39.933594 18.863281 40.277344 18.988281 L 40.277344 21.058594 L 39.988281 21.722656 L 39.90625 22.382812 L 37.964844 26.277344 L 35.855469 28.304688 C 36.285156 28.402344 36.804688 27.820312 37.011719 27.519531 C 37.136719 28.152344 37.335938 29.910156 37.136719 31.867188 C 36.9375 33.820312 36.199219 32.816406 35.855469 32.074219 C 35.125 31.011719 34.753906 28.097656 34.65625 26.773438 C 33.960938 28.859375 35.164062 31.894531 35.855469 33.148438 C 34.628906 33.050781 31.734375 34.351562 30.4375 35.011719 C 29.84375 29.613281 29.363281 25.917969 29.199219 24.742188 C 29.125 24.742188 28.554688 27.292969 29.859375 36.089844 C 30.992188 43.710938 35.398438 49.089844 35.398438 49.089844 C 23.394531 54.65625 11.351562 51.410156 6.828125 49.089844 C 17.167969 38.367188 14.066406 27.890625 13.484375 27.601562 C 14.230469 30.125 13.5 34.460938 13.15625 36.089844 L 7.574219 30.125 C 5.058594 27.839844 6.527344 25.199219 7.574219 24.164062 Z M 7.574219 24.164062 "/>
<path style=" stroke:none;fill-rule:nonzero;fill:rgb(23.137255%,4.313725%,83.137255%);fill-opacity:1;" d="M 12.882812 17.335938 L 7.574219 24.113281 C 7.574219 24.113281 5.410156 26.324219 6.464844 28.636719 Z M 12.882812 17.335938 "/>
<path style=" stroke:none;fill-rule:nonzero;fill:rgb(23.137255%,4.313725%,83.137255%);fill-opacity:1;" d="M 6.828125 49.089844 C 11.351562 51.410156 23.394531 54.65625 35.398438 49.089844 C 34.316406 47.683594 30.757812 42.570312 29.859375 36.089844 C 29.574219 34.027344 28.964844 24.8125 29.199219 24.742188 C 29.316406 25.589844 29.601562 27.75 29.972656 30.914062 C 31.03125 30.804688 33.417969 30.277344 34.5 29.050781 C 34.402344 28.253906 34.425781 27.460938 34.65625 26.773438 C 34.691406 27.289062 34.773438 28.046875 34.898438 28.84375 L 36.558594 26.773438 L 37.507812 24.992188 L 39.285156 22.589844 L 39.90625 21.308594 L 39.78125 20.976562 L 39.039062 19.734375 C 38.707031 19.707031 38.160156 19.980469 38.625 21.308594 L 38.625 22.136719 L 37.34375 20.519531 C 37.136719 20.464844 36.746094 20.570312 36.847656 21.429688 L 37.21875 22.382812 L 37.34375 23.5 L 36.433594 22.589844 L 35.027344 21.84375 C 34.929688 22.09375 34.8125 22.683594 35.109375 23.046875 C 35.484375 23.5 36.597656 24.496094 36.558594 24.992188 C 36.183594 24.566406 35.375 23.726562 35.109375 23.792969 C 34.847656 23.859375 33.152344 24.785156 32.339844 25.242188 C 32.023438 25.460938 31.332031 25.671875 31.101562 24.742188 C 30.867188 23.816406 28.773438 19.453125 27.917969 17.617188 C 29.199219 23.792969 28.140625 34.277344 23.671875 39.839844 C 18.113281 47.226562 9.972656 49.0625 6.828125 49.089844 Z M 6.828125 49.089844 "/>
<path style=" stroke:none;fill-rule:nonzero;fill:rgb(0.392157%,99.607843%,99.215686%);fill-opacity:1;" d="M 18.664062 38.121094 C 18.976562 40.007812 19.972656 40.796875 21.03125 40.910156 C 22.09375 41.023438 23.222656 40.464844 23.800781 39.65625 C 29.035156 32.347656 17.183594 23.503906 12.886719 17.335938 C 13.007812 17.816406 14.609375 20.035156 18.332031 26.277344 C 22.054688 32.519531 22.652344 36.355469 22.042969 37.65625 C 20.988281 39.890625 19.253906 39.222656 18.664062 38.121094 Z M 18.664062 38.121094 "/>
<path style=" stroke:none;fill-rule:nonzero;fill:rgb(23.137255%,4.313725%,83.137255%);fill-opacity:1;" d="M 14.660156 17.023438 L 9.15625 18.167969 C 11.914062 16.46875 13.539062 14.210938 14.003906 13.292969 C 17.671875 12.925781 22.636719 10.308594 24.660156 9.042969 C 27.035156 9.144531 29.988281 8.667969 31.167969 8.417969 C 25.449219 15.613281 16.914062 16.578125 14.660156 17.023438 Z M 14.660156 17.023438 "/>
<path style=" stroke:none;fill-rule:nonzero;fill:rgb(23.137255%,4.313725%,83.137255%);fill-opacity:1;" d="M 24.265625 8.628906 C 20.355469 10.863281 16.171875 11.933594 14.484375 12.210938 C 15.347656 11.125 15.882812 9.921875 16.050781 9.4375 C 15.890625 9.871094 15.058594 10.574219 14.660156 10.875 C 15.425781 5.042969 14.453125 3.308594 13.871094 3.167969 C 14.117188 3.503906 14.246094 3.59375 14.132812 4.070312 C 13.460938 5.246094 12.738281 5.683594 12.476562 6.460938 C 11.949219 2.191406 13.984375 0.507812 15.269531 0.046875 C 17.121094 -0.386719 19.566406 2.390625 20.554688 3.835938 L 18.632812 3.378906 C 21.707031 5.042969 23.671875 7.570312 24.265625 8.628906 Z M 24.265625 8.628906 "/>
<path style=" stroke:none;fill-rule:nonzero;fill:rgb(11.764706%,0.784314%,38.431373%);fill-opacity:1;" d="M 12.476562 6.464844 C 12.738281 5.6875 13.308594 5.535156 14.132812 4.050781 C 14.261719 3.816406 14.21875 3.539062 13.871094 3.167969 C 14.453125 3.304688 15.425781 5.046875 14.660156 10.878906 C 15.0625 10.574219 15.894531 9.875 16.050781 9.4375 C 16.050781 9.433594 16.054688 9.425781 16.054688 9.421875 C 16.054688 9.425781 16.050781 9.433594 16.050781 9.4375 C 15.882812 9.921875 15.347656 11.125 14.484375 12.210938 C 15.375 12.0625 17.003906 11.679688 18.894531 11.03125 C 20.152344 5.863281 16.078125 2.152344 13.878906 0.941406 C 12.925781 1.890625 12.105469 3.632812 12.476562 6.464844 Z M 12.476562 6.464844 "/>
<path style=" stroke:none;fill-rule:nonzero;fill:rgb(11.764706%,0.784314%,38.431373%);fill-opacity:1;" d="M 9.15625 18.167969 L 15.746094 16.824219 L 18.632812 12.054688 C 17.0625 12.667969 15.433594 13.152344 14.003906 13.296875 C 13.539062 14.210938 11.914062 16.46875 9.15625 18.167969 Z M 9.15625 18.167969 "/>
</g>
</svg>
