<svg width="36" height="36" viewBox="0 0 36 36" fill="none" xmlns="http://www.w3.org/2000/svg">
<path d="M18 0C8.064 0 0 8.064 0 18C0 27.936 8.064 36 18 36C27.936 36 36 27.936 36 18C36 8.064 27.936 0 18 0ZM8.28 16.614C8.586 14.472 9.54 12.546 11.034 11.034C14.634 7.452 20.304 7.254 24.156 10.386V8.676C24.156 7.938 24.768 7.326 25.506 7.326C26.244 7.326 26.856 7.938 26.856 8.676V13.482C26.856 14.22 26.244 14.832 25.506 14.832H20.7C19.962 14.832 19.35 14.22 19.35 13.482C19.35 12.744 19.962 12.132 20.7 12.132H22.05C19.26 10.188 15.408 10.458 12.924 12.942C11.844 14.022 11.16 15.426 10.926 16.992C10.836 17.658 10.26 18.144 9.594 18.144C9.522 18.144 9.468 18.144 9.396 18.126C8.694 18.036 8.172 17.352 8.28 16.614ZM24.966 24.966C23.04 26.892 20.52 27.846 18 27.846C15.804 27.846 13.626 27.072 11.826 25.614V27.306C11.826 28.044 11.214 28.656 10.476 28.656C9.738 28.656 9.126 28.044 9.126 27.306V22.5C9.126 21.762 9.738 21.15 10.476 21.15H15.282C16.02 21.15 16.632 21.762 16.632 22.5C16.632 23.238 16.02 23.85 15.282 23.85H13.932C16.722 25.794 20.574 25.524 23.058 23.04C24.138 21.96 24.822 20.556 25.056 18.99C25.164 18.252 25.83 17.73 26.586 17.838C27.324 17.946 27.828 18.63 27.738 19.368C27.414 21.546 26.46 23.472 24.966 24.966Z" fill="#FBBF24"/>
</svg>
