<svg width="36" height="37" viewBox="0 0 36 37" fill="none" xmlns="http://www.w3.org/2000/svg">
<path d="M26.0852 24.4088L20.0252 18.9038H15.9602L9.90021 24.4088C8.20521 25.9388 7.65021 28.2938 8.47521 30.4238C9.30021 32.5388 11.3102 33.9038 13.5752 33.9038H22.4102C24.6902 33.9038 26.6852 32.5388 27.5102 30.4238C28.3352 28.2938 27.7802 25.9388 26.0852 24.4088ZM20.7302 28.1138H15.2702C14.7002 28.1138 14.2502 27.6488 14.2502 27.0938C14.2502 26.5388 14.7152 26.0738 15.2702 26.0738H20.7302C21.3002 26.0738 21.7502 26.5388 21.7502 27.0938C21.7502 27.6488 21.2852 28.1138 20.7302 28.1138Z" fill="#BAC3CA"/>
<path d="M27.525 7.38381C26.7 5.26881 24.69 3.90381 22.425 3.90381H13.575C11.31 3.90381 9.3 5.26881 8.475 7.38381C7.665 9.51381 8.22 11.8688 9.915 13.3988L15.975 18.9038H20.04L26.1 13.3988C27.78 11.8688 28.335 9.51381 27.525 7.38381ZM20.73 11.7488H15.27C14.7 11.7488 14.25 11.2838 14.25 10.7288C14.25 10.1738 14.715 9.70881 15.27 9.70881H20.73C21.3 9.70881 21.75 10.1738 21.75 10.7288C21.75 11.2838 21.285 11.7488 20.73 11.7488Z" fill="#BAC3CA"/>
</svg>
