<?xml version="1.0" encoding="utf-8"?>
<!-- Generator: Adobe Illustrator 16.0.0, SVG Export Plug-In . SVG Version: 6.00 Build 0)  -->
<!DOCTYPE svg PUBLIC "-//W3C//DTD SVG 1.1//EN" "http://www.w3.org/Graphics/SVG/1.1/DTD/svg11.dtd">
<svg version="1.1" id="Icons" xmlns="http://www.w3.org/2000/svg" xmlns:xlink="http://www.w3.org/1999/xlink" x="0px" y="0px"
	 width="24px" height="24px" viewBox="0 0 24 24" enable-background="new 0 0 24 24" xml:space="preserve">
<g id="Single-Male">
	<g>
		<path fill="#523CBD" d="M19.807,21.367c-0.189-0.479-0.408-0.933-0.643-1.367H4.828c0.875-1.625,2.033-2.897,3.242-3.521
			c0.301-0.156,0.503-0.453,0.536-0.79c0.033-0.337-0.106-0.668-0.371-0.88c-1.462-1.168-2.301-2.888-2.301-4.719
			c0-1.113,0.312-2.208,0.901-3.167c0.29-0.471,0.143-1.086-0.328-1.376C6.037,5.257,5.421,5.404,5.133,5.875
			C4.349,7.149,3.935,8.607,3.935,10.09c0,1.992,0.74,3.883,2.066,5.353c-1.499,1.164-2.799,2.989-3.667,5.19
			c-0.122,0.308-0.083,0.656,0.103,0.93C2.623,21.836,2.933,22,3.264,22h17.47C20.336,21.999,19.962,21.759,19.807,21.367z"/>
	</g>
	<g>
		<path fill="#CA86FF" d="M20.736,22c-0.398,0-0.774-0.24-0.93-0.633c-0.896-2.268-2.347-4.096-3.88-4.889
			c-0.301-0.156-0.502-0.453-0.535-0.79s0.106-0.667,0.37-0.879c1.462-1.169,2.301-2.889,2.301-4.719
			c0-3.343-2.72-6.063-6.063-6.063c-1.074,0-2.137,0.291-3.071,0.842C8.454,5.15,7.84,4.992,7.56,4.516S7.438,3.427,7.913,3.146
			C9.155,2.414,10.568,2.027,12,2.027c4.445,0,8.063,3.617,8.063,8.063c0,1.992-0.74,3.882-2.066,5.353
			c1.501,1.166,2.802,2.99,3.67,5.19c0.203,0.514-0.049,1.094-0.563,1.297C20.983,21.978,20.858,22,20.736,22z"/>
	</g>
</g>
</svg>
