<svg width="280" height="281" viewBox="0 0 280 281" fill="none" xmlns="http://www.w3.org/2000/svg">
<path opacity="0.1" d="M238.998 136.827C238.998 113.922 231.056 91.7269 216.526 74.0217C201.996 56.3166 181.776 44.1973 159.312 39.7289C136.848 35.2605 113.529 38.7195 93.3298 49.5165C73.1301 60.3134 57.299 77.7803 48.534 98.941C39.7689 120.102 38.6122 143.647 45.261 165.565C51.9097 187.483 65.9525 206.417 84.9966 219.142C104.041 231.867 126.908 237.595 149.702 235.35C172.496 233.105 193.806 223.026 210.002 206.83L208.957 205.785C193.003 221.739 172.01 231.668 149.557 233.879C127.103 236.091 104.578 230.448 85.8177 217.913C67.0579 205.378 53.2248 186.727 46.6753 165.136C40.1258 143.545 41.2653 120.351 49.8995 99.5066C58.5337 78.6618 74.1284 61.4557 94.0265 50.8199C113.925 40.1842 136.895 36.7768 159.024 41.1785C181.152 45.5802 201.07 57.5185 215.384 74.9594C229.697 92.4002 237.52 114.264 237.52 136.827H238.998Z" fill="url(#paint0_linear_3032_22757)"/>
<path opacity="0.1" d="M75.5015 184.156C86.4513 199.078 102.236 209.741 120.167 214.33C138.098 218.918 157.064 217.147 173.836 209.319C190.607 201.491 204.146 188.089 212.144 171.398C220.142 154.707 222.106 135.76 217.7 117.783C213.294 99.8068 202.791 83.9142 187.981 72.8134C173.171 61.7125 154.971 56.0902 136.48 56.9044C117.99 57.7186 100.353 64.919 86.5766 77.2786C72.7998 89.6383 63.7347 106.392 60.926 124.687L62.1065 124.868C64.8733 106.847 73.803 90.3427 87.3742 78.1676C100.945 65.9925 118.318 58.8996 136.533 58.0976C154.747 57.2955 172.676 62.8339 187.265 73.769C201.854 84.7042 212.2 100.359 216.54 118.067C220.88 135.775 218.946 154.44 211.067 170.882C203.188 187.324 189.852 200.525 173.331 208.237C156.81 215.948 138.126 217.692 120.463 213.173C102.8 208.653 87.2507 198.148 76.4644 183.449L75.5015 184.156Z" fill="url(#paint1_linear_3032_22757)"/>
<g filter="url(#filter0_d_3032_22757)">
<circle cx="140" cy="136.827" r="40" fill="#23B365"/>
</g>
<path d="M147.333 119.327H132.667C127.05 119.327 122.5 123.877 122.5 129.494V133.764C122.5 134.727 123.287 135.514 124.25 135.514H155.75C156.713 135.514 157.5 134.727 157.5 133.764V129.494C157.5 123.877 152.95 119.327 147.333 119.327ZM130.812 130.264C130.812 130.982 130.218 131.577 129.5 131.577C128.782 131.577 128.188 130.982 128.188 130.264V126.764C128.188 126.047 128.782 125.452 129.5 125.452C130.218 125.452 130.812 126.047 130.812 126.764V130.264ZM137.812 130.264C137.812 130.982 137.217 131.577 136.5 131.577C135.783 131.577 135.188 130.982 135.188 130.264V126.764C135.188 126.047 135.783 125.452 136.5 125.452C137.217 125.452 137.812 126.047 137.812 126.764V130.264ZM150.5 129.827H143.5C142.782 129.827 142.188 129.232 142.188 128.514C142.188 127.797 142.782 127.202 143.5 127.202H150.5C151.218 127.202 151.812 127.797 151.812 128.514C151.812 129.232 151.218 129.827 150.5 129.827Z" fill="#005025"/>
<path d="M122.5 144.159C122.5 149.777 127.05 154.327 132.667 154.327H147.315C152.95 154.327 157.5 149.777 157.5 144.159V139.889C157.5 138.927 156.713 138.139 155.75 138.139H124.25C123.287 138.139 122.5 138.927 122.5 139.889V144.159ZM143.5 144.264H150.5C151.218 144.264 151.812 144.859 151.812 145.577C151.812 146.294 151.218 146.889 150.5 146.889H143.5C142.782 146.889 142.188 146.294 142.188 145.577C142.188 144.859 142.782 144.264 143.5 144.264ZM135.188 143.827C135.188 143.109 135.783 142.514 136.5 142.514C137.217 142.514 137.812 143.109 137.812 143.827V147.327C137.812 148.044 137.217 148.639 136.5 148.639C135.783 148.639 135.188 148.044 135.188 147.327V143.827ZM128.188 143.827C128.188 143.109 128.782 142.514 129.5 142.514C130.218 142.514 130.812 143.109 130.812 143.827V147.327C130.812 148.044 130.218 148.639 129.5 148.639C128.782 148.639 128.188 148.044 128.188 147.327V143.827Z" fill="#005025"/>
<circle cx="140" cy="136.827" r="58.5" stroke="white" stroke-opacity="0.1"/>
<defs>
<filter id="filter0_d_3032_22757" x="0" y="0.82666" width="280" height="280" filterUnits="userSpaceOnUse" color-interpolation-filters="sRGB">
<feFlood flood-opacity="0" result="BackgroundImageFix"/>
<feColorMatrix in="SourceAlpha" type="matrix" values="0 0 0 0 0 0 0 0 0 0 0 0 0 0 0 0 0 0 127 0" result="hardAlpha"/>
<feOffset dy="4"/>
<feGaussianBlur stdDeviation="50"/>
<feComposite in2="hardAlpha" operator="out"/>
<feColorMatrix type="matrix" values="0 0 0 0 0.00336808 0 0 0 0 0.808333 0 0 0 0 0.18046 0 0 0 0.25 0"/>
<feBlend mode="normal" in2="BackgroundImageFix" result="effect1_dropShadow_3032_22757"/>
<feBlend mode="normal" in="SourceGraphic" in2="effect1_dropShadow_3032_22757" result="shape"/>
</filter>
<linearGradient id="paint0_linear_3032_22757" x1="139.998" y1="37.8267" x2="139.998" y2="235.827" gradientUnits="userSpaceOnUse">
<stop stop-color="white"/>
<stop offset="1" stop-color="white" stop-opacity="0"/>
</linearGradient>
<linearGradient id="paint1_linear_3032_22757" x1="187.328" y1="201.325" x2="97.5" y2="65.8267" gradientUnits="userSpaceOnUse">
<stop stop-color="white"/>
<stop offset="1" stop-color="white" stop-opacity="0"/>
</linearGradient>
</defs>
</svg>
